<?xml version="1.0" encoding="utf-8"?>
<!-- Generator: Adobe Illustrator 26.5.1, SVG Export Plug-In . SVG Version: 6.00 Build 0)  -->
<svg version="1.1" id="Слой_1" xmlns="http://www.w3.org/2000/svg" xmlns:xlink="http://www.w3.org/1999/xlink" x="0px" y="0px"
	 viewBox="0 0 1400.78186 1241.87231" enable-background="new 0 0 1400.78186 1241.87231" xml:space="preserve">
<g>
	<g>
		<path fill="#546A81" d="M916.48322,1110.91113C1585.8501,739.96362,1179.6499-69.77885,433.96643,303.34875
			S348.79816,1425.50891,916.48322,1110.91113z"/>
	</g>
	<g>
		<path fill="#B8D0D1" d="M599.71973,390.11111c66.82544-22.47647,113.25195-17.99734,128.97809-8.68387
			c15.7262,9.31348,3.33478,32.3107-13.74884,42.82715c-17.08368,10.51642-92.95386,48.65219-92.95386,48.65219
			s-29.98553-46.9462-29.95807-47.79669C592.06451,424.25937,599.71973,390.11111,599.71973,390.11111z"/>
	</g>
	<g>
		<path fill="#B8D6E8" d="M523.32568,440.74231c-52.33499-11.89243-86.61292,24.99387-110.50851,132.86694
			s-19.69308,94.93738-24.02734,122.49127c-4.33426,27.55396,90.40338,188.52283,118.26157,134.36572
			c27.85822-54.1571,73.15002-191.18768,62.52643-284.04871C558.95416,453.55652,545.01892,445.67181,523.32568,440.74231z"/>
	</g>
	<g>
		<path fill="#FFAC8D" d="M269.27414,602.83008c0,0,34.70148,369.59619,120.27734,354.7511s155.26102-335.4906,165.65054-395.4812
			s-40.20587-150.48013-88.28616-103.69287s-80.8093,303.19958-80.8093,303.19958l20.50043,4.3158
			c0,0-78.61389-174.22961-91.71625-202.08643C301.78842,535.97931,266.01639,584.17053,269.27414,602.83008z"/>
	</g>
	<g opacity="0.5">
		<path fill="#E58061" d="M461.01266,784.90613c2.44653-2.09668,14.32785-63.25189,14.32785-63.25189l-74.28183-55.26843
			c-2.69617,14.95593-5.0585,29.03094-7.06143,41.54028C425.57468,708.52155,458.56662,787.00281,461.01266,784.90613z"/>
	</g>
	<g>
		<path fill="#FFAC8D" d="M322.61176,592.67847c-3.11658,50.26532-102.83052,27.90106-102.83052,27.90106l5.60239-84.08783
			C225.38362,536.4917,327.33807,516.4505,322.61176,592.67847z"/>
	</g>
	<g>
		<path fill="#FFAC8D" d="M313.64648,557.98877c-13.85336-28.19684-81.56195-66.36044-114.13037-64.13132
			c-8.37866,11.759,44.73982,37.29312,44.73982,37.29312s-2.28151,23.60266,25.90254,28.99969
			C298.3425,565.54724,313.64648,557.98877,313.64648,557.98877z"/>
	</g>
	<g>
		<path fill="#FFAC8D" d="M246.8454,624.04047c0,0-86.63615-8.97394-90.13354-15.41156
			c-8.55875-15.75403,87.64383-4.28802,87.64383-4.28802L246.8454,624.04047z"/>
	</g>
	<g>
		<path fill="#FFAC8D" d="M247.81432,609.49762c0,0-118.20126-12.24353-122.9729-21.02661
			c-11.67705-21.49384,119.57608-5.85034,119.57608-5.85034L247.81432,609.49762z"/>
	</g>
	<g>
		<path fill="#FFAC8D" d="M251.01921,561.39435c0,0-118.20126-12.24347-122.9729-21.02661
			c-11.67704-21.49384,119.57608-5.85034,119.57608-5.85034L251.01921,561.39435z"/>
	</g>
	<g>
		<path fill="#FFAC8D" d="M249.33572,586.66254c0,0-129.63342-13.42767-134.86655-23.0603
			c-12.80642-23.57263,131.14117-6.41614,131.14117-6.41614L249.33572,586.66254z"/>
	</g>
	<g>
		<path fill="#B8D6E8" d="M495.65698,814.20569c0,0-78.95203-152.28186-104.4805-113.98914
			c12.31287-100.06671,46.99051-285.23669,126.77182-259.93015S601.72223,552.87469,495.65698,814.20569z"/>
	</g>
	<g>
		<path fill="#313A42" d="M449.86893,1050.41931c0,0-8.23676,61.23889,1.7822,106.49731
			c111.86139,37.24854,239.86761,41.72168,367.49628-2.44751c9.31122-57.17102,7.58875-142.06763,7.58875-142.06763
			L449.86893,1050.41931z"/>
	</g>
	<g>
		<path fill="#B8D6E8" d="M779.65179,1098.38831c96.34235-10.77649,59.44531-18.12561,75.67529-219.13745
			c16.22992-201.01178,99.49799-400.89523-9.59668-436.21008c-89.0412-28.82339-289.02789-34.67719-348.11057-1.79416
			s-59.17529,182.52298-54.00452,315.56253c5.17081,133.03961-46.95734,288.20612,10.61328,319.54071
			C490.21155,1095.93457,599.26758,1118.56531,779.65179,1098.38831z"/>
	</g>
	<g>
		<path fill="#A4CADD" d="M813.72693,744.35193c-2.8833,220.59058-9.03516,307.33813-19.25049,352.24194
			c77.58789-10.39233,45.52051-27.4751,60.85059-217.34302c7.59473-94.06079,29.86719-187.87329,40.24121-264.69336
			L813.72693,744.35193z"/>
	</g>
	<g>
		<path fill="#B8D6E8" d="M849.16437,451.26428c52.99323-8.49118,84.81995,30.52975,101.70618,139.71979
			c16.88617,109.19,13.52698,96.01007,16.07452,123.78625c2.54755,27.77612-102.37787,182.29755-126.68402,126.45593
			c-24.30609-55.84161-60.66284-195.50879-44.07025-287.49097C812.78333,461.75314,827.1983,454.78394,849.16437,451.26428z"/>
	</g>
	<g>
		<path fill="#FFAC8D" d="M1092.22925,629.40491c0,0-58.47424,366.58734-142.91406,346.25214
			S816.02228,630.84851,809.52484,570.31256c-6.4975-60.53595,49.83057-147.57269,94.79218-97.78091
			c44.96155,49.79178,61.07953,307.78146,61.07953,307.78146l-20.73621,2.98413c0,0,89.69086-168.79474,104.56305-195.74811
			C1064.0957,560.5957,1096.68408,610.99438,1092.22925,629.40491z"/>
	</g>
	<g opacity="0.5">
		<path fill="#E58061" d="M868.62024,851.22229c7.90302-27.54675,35.78583-110.66687,91.05524-138.41711
			c-1.81799-18.07465-4.10162-38.53137-6.89398-59.76001c-1.1955-0.98572-1.95435-1.02704-1.95435-1.02704L841.17499,751.0014
			C848.97125,784.99884,858.13385,819.62628,868.62024,851.22229z"/>
	</g>
	<g>
		<path fill="#FFAC8D" d="M1039.65771,615.83325c-0.13281,50.36169,100.81616,34.47723,100.81616,34.47723l-0.16565-84.27405
			C1140.30823,566.03644,1039.85925,539.45923,1039.65771,615.83325z"/>
	</g>
	<g>
		<path fill="#FFAC8D" d="M1050.84241,581.79431c15.64368-27.24438,85.67334-60.96014,118.03015-56.63446
			c7.60254,12.27509-47.05273,34.32898-47.05273,34.32898s0.75403,23.70068-27.71948,27.26807
			C1065.62683,590.32434,1050.84241,581.79431,1050.84241,581.79431z"/>
	</g>
	<g>
		<path fill="#FFAC8D" d="M1113.24292,652.01813c0,0,87.03455-3.36578,90.94006-9.56433
			c9.55725-15.16901-87.18469-9.93359-87.18469-9.93359L1113.24292,652.01813z"/>
	</g>
	<g>
		<path fill="#FFAC8D" d="M1113.21423,637.44305c0,0,118.74487-4.59204,124.07324-13.04901
			c13.03943-20.69568-118.94946-13.5528-118.94946-13.5528L1113.21423,637.44305z"/>
	</g>
	<g>
		<path fill="#FFAC8D" d="M1113.11951,589.23328c0,0,118.74487-4.59204,124.07324-13.04901
			c13.03943-20.69574-118.94958-13.5528-118.94958-13.5528L1113.11951,589.23328z"/>
	</g>
	<g>
		<path fill="#FFAC8D" d="M1113.16919,614.55737c0,0,130.22974-5.03619,136.07336-14.3111
			c14.30054-22.69733-130.45398-14.86359-130.45398-14.86359L1113.16919,614.55737z"/>
	</g>
	<g>
		<path fill="#B8D6E8" d="M852.68085,825.73468c0,0,5.0871-69.6499,109.71051-128.13928
			c-5.8313-100.65259-26.58362-266.54575-107.83136-246.43915S763.69678,558.10516,852.68085,825.73468z"/>
	</g>
	<g>
		<path fill="#8BBDD1" d="M840.26331,843.72736c-0.92871,0-1.82031-0.51953-2.25195-1.41113
			c-31.12256-64.25293-46.49365-191.5918-43.9126-201.13574c0.03711-0.13818,0.08594-0.27295,0.14648-0.40234l8.50928-18.28613
			c0.5835-1.25195,2.07178-1.79297,3.32129-1.21191c1.25195,0.58252,1.79443,2.06934,1.21191,3.32129l-8.40088,18.05371
			c-1.69775,8.78125,12.01855,132.23047,43.62451,197.48145c0.60156,1.24219,0.08203,2.73828-1.16016,3.33984
			C840.99963,843.6463,840.62854,843.72736,840.26331,843.72736z"/>
	</g>
	<g>
		<path fill="#8BBDD1" d="M796.51428,644.33331c-0.80127,0-1.58789-0.38428-2.07178-1.09717l-10.77881-15.89453
			c-0.7749-1.14307-0.47656-2.69727,0.66602-3.47266c1.14404-0.77441,2.69678-0.47607,3.47266,0.66602l10.77881,15.89453
			c0.7749,1.14307,0.47656,2.69727-0.66602,3.47266C797.48499,644.19318,796.99719,644.33331,796.51428,644.33331z"/>
	</g>
	<g>
		<path fill="#8BBDD1" d="M830.54749,472.96072c-0.42578,0-0.85645-0.1084-1.25098-0.33691
			c-1.19434-0.69189-1.60254-2.22119-0.91016-3.41602c6.64941-11.48584,17.95215-15.1626,18.42969-15.31348
			c1.31738-0.41455,2.7207,0.31445,3.13672,1.63086c0.41504,1.31494-0.3125,2.71729-1.62598,3.13525
			c-0.15332,0.0498-9.98145,3.32373-15.61426,13.05225C832.24963,472.51346,831.40979,472.96072,830.54749,472.96072z"/>
	</g>
	<g opacity="0.45">
		<path fill="#C7E2EF" d="M936.66833,567.96741c3.40674-1.06519,6.56738-2.27148,9.5083-3.59961
			c-9.62354-48.01001-23.01465-79.4136-40.92383-96.92044c-12.02295-12.95898-26.51025-19.74976-43.9751-17.54492
			c-4.68506-2.71851-9.85059-5.01758-15.54736-6.86182c-85.9375-27.8186-275.20459-34.23633-341.4126-5.08691
			c-6.7998-0.14038-13.23633,1.32227-19.32568,4.17041c-22.50977,8.25659-40.67432,31.3833-55.58447,72.48709
			c9.01855,19.80542,36.96289,30.59644,36.96289,30.59644s27.06348,37.96729,193.021,38.47778
			c87.84277,0.27026,128.61475-13.63452,147.5376-26.78394C828.90466,570.23865,873.26453,587.79211,936.66833,567.96741z"/>
	</g>
	<g>
		<path fill="#B8D6E8" d="M610.48523,419.76279l-63.75439,13.45068v27.34961c0,4.78101,4.78418,8.08374,9.25488,6.38916
			l33.95898-12.87256l19.51172,39.68433l6.36084,1.41089l69.35107-41.09521l46.03857,25.06445
			c4.75879,2.59106,10.68506,1.4624,14.15869-2.69653l39.43408-47.21655
			C731.73035,420.7352,666.73962,417.14804,610.48523,419.76279z"/>
	</g>
	<g>
		<path fill="#664540" d="M535.30798,146.76613c-27.27457,21.89085-14.00543,82.61276,20.854,79.37617
			C591.02148,222.90572,556.86835,129.46156,535.30798,146.76613z"/>
	</g>
	<g>
		<path fill="#664540" d="M787.4801,143.47098c-0.67188,0-1.3418-0.26904-1.83447-0.80127
			c-16.55518-17.8745-37.91357-5.82617-38.12256-5.69678c-1.12354,0.80176-2.65186,0.51758-3.45312-0.60693
			c-0.80176-1.12402-0.50635-2.7085,0.61768-3.50977c0.2334-0.16699,25.2207-14.53417,44.62598,6.41602
			c0.93848,1.0127,0.87793,2.59473-0.13525,3.53271C788.69739,143.25076,788.08801,143.47098,787.4801,143.47098z"/>
	</g>
	<g>
		<path fill="#664540" d="M751.95471,134.89969c-0.60645,0-1.21387-0.21875-1.69434-0.66211
			c-1.01514-0.93604-1.0791-2.51807-0.14307-3.53271c0.49902-0.54102,12.36914-13.21532,25.57178-10.82323
			c1.3584,0.24658,2.25977,1.54736,2.01367,2.90625c-0.24658,1.3584-1.54395,2.2583-2.90625,2.01367
			c-10.52783-1.91113-20.8999,9.18066-21.00342,9.29296C753.29993,134.62869,752.62854,134.89969,751.95471,134.89969z"/>
	</g>
	<g>
		<path fill="#FFAC8D" d="M763.29993,429.55429c-35.4884-11.6152-39.11371-34.22537-41.48096-59.57382l-0.49945-5.46823
			c-0.00024-0.00287-0.00049-0.00552-0.00073-0.00818l0,0l-10.75464-117.75641l-110.56561,22.49826l2.9093,97.14111
			c-0.03113,3.22672-0.11005,19.1246,1.09961,36.71686l0.00037,0.01187c0.78027,11.43259-7.7027,15.86829-14.96637,17.58203
			c-3.25519,0.32675,7.61737,37.05615,27.97638,48.01117C725.59442,410.97586,768.01141,430.80963,763.29993,429.55429z"/>
	</g>
	<g opacity="0.5">
		<path fill="#E58061" d="M707.98108,282.0575l-97.86035,62.8605l-7.57941,9.23224l0.36652,12.23679
			c-0.03113,3.22672-0.11005,19.1246,1.09961,36.71686l0.00037,0.01187c0.047,0.68805,0.05664,1.34784,0.03882,1.98615
			C714.95605,389.67999,707.98108,282.0575,707.98108,282.0575z"/>
	</g>
	<g>
		<path fill="#FFAC8D" d="M665.91833,105.84392c65.01495,22.32472,80.34332,89.17043,63.52173,155.16405
			c-21.80585,85.5477-90.85779,122.46988-141.87805,128.13837c-64.85913,7.20599-63.01355-37.27747-50.68176-232.75085
			C539.53625,114.29497,578.47534,75.81788,665.91833,105.84392z"/>
	</g>
	<g>
		<path fill="#FF9C7D" d="M580.14795,265.64267c-24.24829-5.62482-29.1474,13.99121-14.80255,16.54697
			C589.65997,286.52164,602.96881,270.93637,580.14795,265.64267z"/>
	</g>
	<g>
		<path fill="#FF9C7D" d="M531.20544,256.03296c-0.5058,11.88611-0.85266,22.81857-1.00702,32.85434
			C555.38055,281.30984,559.9328,256.13196,531.20544,256.03296z"/>
	</g>
	<g opacity="0.5">
		<path fill="#E58061" d="M695.54456,163.31888c4.93365-34.29414-117.04443-30.26521-153.89539-28.27405
			c-2.73523,6.77774-4.3056,14.00833-4.76874,21.35071c-0.37042,5.87048-0.73083,11.59688-1.08069,17.19795
			C557.97498,182.0228,640.13226,204.80478,695.54456,163.31888z"/>
	</g>
	<g>
		<path fill="#664540" d="M691.69989,165.92546c0,0-35.14716,54.43057,30.13947,84.56461
			c28.10498-2.06517,88.42548-95.3885,31.7868-116.56326c19.47449-31.48167-156.97479-81.28454-221.84497-34.66243
			C483.93088,133.65436,568.71631,202.81976,691.69989,165.92546z"/>
	</g>
	<g>
		<path fill="#3C2D2B" d="M583.4762,296.64822c-2.42871,0-4.85742-0.17236-7.16211-0.52783
			c-14.64746-2.25928-22.32959-11.06738-20.54932-23.56152c0.60449-4.2417,2.54834-7.37793,5.77734-9.32129
			c5.41357-3.25879,13.07373-2.06006,17.25635-1.01904l3.95215-34.8335c0.15576-1.37207,1.39551-2.3623,2.76562-2.20215
			c1.37207,0.15527,2.35791,1.39404,2.20215,2.76562l-4.28662,37.78418c-0.08594,0.75977-0.51514,1.43799-1.16406,1.84131
			c-0.6499,0.40381-1.44824,0.4873-2.1665,0.229c-2.87012-1.02539-11.34375-3.07812-15.9873-0.27783
			c-1.90039,1.14697-3.01221,3.02393-3.39893,5.73877c-1.66113,11.6582,6.92725,15.98535,14.42432,17.56299
			c12.34863,2.59766,24.16992-1.42773,24.729-3.42383c0.22607-1.36133,1.50781-2.28076,2.87451-2.05225
			c1.3623,0.22607,2.28223,1.51807,2.05615,2.88037C603.90881,293.59109,593.69592,296.64822,583.4762,296.64822z"/>
	</g>
	<g>
		<path fill="#FFAC8D" d="M708.65094,296.82733c-20.10449-6.32245-28.23004-71.92696,18.85968-68.62843
			C774.6004,231.49742,738.29443,306.14966,708.65094,296.82733z"/>
	</g>
	<g>
		<path fill="#E58061" d="M711.07141,276.02469c-0.49365,0-0.9873-0.146-1.4126-0.4375
			c-0.83887-0.57422-1.24609-1.59961-1.03027-2.59277c2.30713-10.62598,11.11816-29.80615,27.94043-26.33203
			c1.35205,0.27881,2.22217,1.60107,1.94287,2.95361c-0.27881,1.35205-1.59961,2.2207-2.95361,1.94287
			c-11.55029-2.38184-17.80811,9.94336-20.46924,17.30566c3.88086-1.31152,9.08691-1.91846,12.97119,1.92773
			c0.98096,0.97168,0.98877,2.55469,0.01709,3.53564c-0.97168,0.98145-2.55518,0.98779-3.53564,0.01709
			c-3.96094-3.92188-12.0127,1.2124-12.09277,1.26611C712.03088,275.88699,711.5509,276.02469,711.07141,276.02469z"/>
	</g>
	<g>
		<path fill="#3C2D2B" d="M602.11682,320.6033c-1.15674,0-2.19531-0.80762-2.44385-1.98438
			c-0.28467-1.35107,0.57959-2.67725,1.93018-2.9624c10.97119-2.31348,18.82129-12.88916,19.6958-15.78174
			c0.3999-1.32129,1.7959-2.06787,3.1167-1.66943c1.32178,0.3999,2.06885,1.79492,1.66943,3.1167
			c-1.31299,4.3418-10.21631,16.43604-23.44971,19.22705C602.46106,320.58572,602.28772,320.6033,602.11682,320.6033z"/>
	</g>
	<g>
		<path fill="#E58061" d="M620.63538,324.3826c-1.15625,0-2.19482-0.80664-2.44336-1.98291
			c-0.2832-1.33936,0.56299-2.65527,1.89404-2.95605c0.20264-0.05127,3.43066-0.93799,6.22412-5.61963
			c0.70654-1.18506,2.2417-1.57275,3.42773-0.86621c1.18604,0.70752,1.57373,2.24219,0.86621,3.42773
			c-3.94434,6.61133-8.89697,7.82568-9.44873,7.94238C620.98059,324.36502,620.80676,324.3826,620.63538,324.3826z"/>
	</g>
	<g>
		<path fill="#3C2D2B" d="M651.94836,205.6326c-0.55518,0-1.11328-0.18359-1.57764-0.56152
			c-16.1377-13.14551-36.3501-14.06494-36.55225-14.07275c-1.37891-0.05273-2.45508-1.2124-2.40381-2.59131
			s1.1958-2.4458,2.58789-2.40527c0.89209,0.03271,22.05029,0.95752,39.52637,15.19238
			c1.07031,0.87207,1.23145,2.44678,0.35938,3.51758C653.39417,205.31815,652.67395,205.6326,651.94836,205.6326z"/>
	</g>
	<g>
		<path fill="#3C2D2B" d="M538.5968,210.27518c-0.85645,0-1.69043-0.43945-2.15625-1.22998
			c-0.70068-1.18799-0.30811-2.71826,0.87891-3.4209c0.68701-0.40625,17.04932-9.90918,36.72266-6.04688
			c1.35449,0.26611,2.2373,1.58008,1.97119,2.93506c-0.26562,1.35498-1.57861,2.23486-2.93506,1.97119
			c-17.74805-3.48779-33.06348,5.35596-33.21582,5.4458C539.46399,210.16385,539.02747,210.27518,538.5968,210.27518z"/>
	</g>
	<g>
		<path fill="#664540" d="M675.98303,197.47781c-0.25977,0-0.52344-0.04053-0.7832-0.12598
			c-1.31152-0.43262-2.02393-1.84619-1.5918-3.15723c1.47998-4.48828,4.80469-11.44727,8.68799-18.11475
			c-15.24072,8.48682-32.89844,13.19727-33.98291,13.48193c-1.33594,0.35205-2.70166-0.44727-3.05273-1.78271
			c-0.35059-1.33545,0.44775-2.70215,1.78271-3.05322c0.31494-0.08252,26.61621-7.10205,41.95703-18.92725
			c3.09766-4.15381,6.11133-7.27832,8.48828-8.18799c1.03223-0.39453,2.19971-0.06592,2.87451,0.80957
			c0.67383,0.87549,0.69336,2.08936,0.04785,2.98584c-2.03418,2.82617-4.71289,5.45898-7.78125,7.88818
			c-5.34277,7.38232-11.77148,18.87891-14.27246,26.46582C678.01038,196.81131,677.03284,197.47781,675.98303,197.47781z"/>
	</g>
	<g>
		<path fill="#3C2D2B" d="M629.77448,250.21713c-11.53729-0.18655-11.20789-26.51738,1.19708-25.48454
			C642.02393,225.65282,638.15686,250.35269,629.77448,250.21713z"/>
	</g>
	<g>
		<path fill="#3C2D2B" d="M559.36847,245.22873c-11.53729-0.18657-11.20789-26.51738,1.19708-25.48456
			C571.61792,220.6644,567.75085,245.36427,559.36847,245.22873z"/>
	</g>
	<g>
		<path fill="#664540" d="M625.58844,136.10802c-85.36407-10.63054-78.81708-81.09802,11.4306-76.48645
			s145.55762,65.68423,104.65063,83.84268C700.76276,161.62268,625.58844,136.10802,625.58844,136.10802z"/>
	</g>
	<g>
		<polygon fill="#FFAC8D" points="597.33844,436.70792 615.26349,496.80927 699.67645,422.62601 		"/>
	</g>
	<g>
		<path fill="#A4CADD" d="M774.03278,408.72058l-46.08575-27.29337L617.47687,491.84827
			c-0.70526,0.70523-1.91321,0.31052-2.0661-0.67517l-15.69122-101.06195l-48.10925,26.97635
			c-2.96686,1.66385-4.81238,4.79309-4.83246,8.19473l-0.14484,24.55258c-0.03308,5.60437,6.02277,9.13461,10.8833,6.34445
			l26.86035-15.4191c1.88568-1.08215,4.2926-0.32779,5.22241,1.6373c2.2453,4.74664,12.50165,32.74841,20.76031,53.66174
			c1.46075,3.69901,6.1297,4.85611,9.1449,2.26282l66.02905-56.79044c2.20795-1.71875,5.26703-1.83655,7.60077-0.29272
			l37.18329,24.59595c4.46881,2.95605,10.45892,1.98285,13.76208-2.2359l32.47424-41.47574
			C779.93048,417.81039,778.74573,411.51175,774.03278,408.72058z"/>
	</g>
	<g>
		<path fill="#D76056" d="M227.2148,549.7583c-100.27418,0.02075-180.83975-94.86884-126.13602-143.66464
			c56.05833-50.00412,142.90692,64.00177,142.90692,64.00177s-68.02722-10.99451-65.10159-15.04526
			c2.92561-4.05075-16.82066-101.96786,69.83633-96.42236C331.09805,363.89948,290.45016,506.93402,227.2148,549.7583z"/>
	</g>
	<g>
		<path fill="#FFA08D" d="M1092.78369,446.24426c-19.22107,27.06836-65.21106-1.05484-50.43091-29.88416
			c-28.0376,2.20197-31.42548-45.98849-6.88318-52.63721c-22.724-19.18344,5.25342-64.53836,35.67834-45.8703
			c3.89587-27.33002,55.2793-33.68161,66.15625-4.17722c22.78601-24.9111,82.96411,4.60306,76.38159,58.0379
			c32.17603-15.59863,71.80908,82.40948-4.66772,102.51059C1202.68494,523.45825,1096.80017,507.76639,1092.78369,446.24426z"/>
	</g>
	<g>
		<path fill="#FFE1B0" d="M1180.20874,473.48563c5.43579,34.04501,20.77917,59.5994,34.34985,60.40536
			s16.32837-1.94849,16.21631-5.52191s-7.63696-40.6608-7.63696-40.6608L1180.20874,473.48563z"/>
	</g>
	<g>
		<path fill="#FFA08D" d="M1149.52551,449.6142c-21.70251,26.92099-74.4071-1.60098-57.78577-30.32095
			c-31.96936,1.96844-36.23767-46.27429-8.29346-52.72098c-26.08594-19.38309,5.45349-64.52646,40.32117-45.59454
			c4.21594-27.311,62.7854-33.23581,75.44165-3.62573c25.78784-24.73285,94.69104,5.2995,87.62817,58.70584
			c36.57861-15.33716,82.61548,83.05127-4.46765,102.52246C1275.55627,527.78613,1154.62268,511.2005,1149.52551,449.6142z"/>
	</g>
	<g>
		<path fill="#D66C5B" d="M1175.69885,492.60281c-0.48242,0-0.96875-0.13916-1.39746-0.4292
			c-14.70117-9.93213-23.79297-22.67041-26.5498-37.08936c-13.30078,11.75391-33.44141,9.12061-47.00098-0.18701
			c-12.75879-8.75781-17.57324-21.40039-12.98535-33.11279c-14.91895-0.99121-23.28516-12.6875-25.02734-24.69189
			c-1.78027-12.26758,3.14844-26.22363,15.73145-31.53516c-10.0166-10.17871-8.44922-24.32666-1.87109-34.62793
			c8.60547-13.47852,26.67871-22.03125,45.4541-13.59033c0.59277-1.896,1.43945-3.72021,2.53125-5.45068
			c0.73828-1.16895,2.28125-1.51514,3.44922-0.7793c1.16699,0.73682,1.51562,2.28076,0.7793,3.44824
			c-1.33789,2.11914-2.2041,4.40771-2.57422,6.80225c-0.12402,0.8042-0.63184,1.49707-1.36035,1.8584
			c-0.73047,0.36035-1.58887,0.34521-2.30371-0.04346c-17.90039-9.71826-34.19824-1.40088-41.76172,10.44531
			c-6.00977,9.4126-7.06445,22.63135,4.125,30.94531c0.78223,0.58154,1.15527,1.56445,0.95605,2.51855
			s-0.93555,1.70508-1.88574,1.92432c-12.89062,2.97412-17.96777,16.01807-16.32129,27.36621
			c1.45215,10.01123,8.56738,21.35596,23.90039,20.42383c0.89258-0.05908,1.79492,0.39648,2.2793,1.18018
			s0.49902,1.77002,0.03809,2.56738c-7.20312,12.44629,0.27539,23.77637,9.67676,30.22949
			c13.04395,8.9541,32.89746,11.04102,43.99805-2.72998c0.6416-0.79639,1.70801-1.12109,2.67969-0.8208
			c0.97754,0.2998,1.67383,1.16455,1.75781,2.18311c1.57129,18.97705,14.50879,31.47803,25.08398,38.62354
			c1.14453,0.77295,1.44531,2.32666,0.67188,3.4707C1177.28967,492.21707,1176.50061,492.60281,1175.69885,492.60281z"/>
	</g>
	<g>
		<path fill="#D66C5B" d="M1271.0592,460.25076c-0.72949,0-1.45215-0.31738-1.94629-0.92822
			c-7.78027-9.62451-29.06641-32.16406-58.59375-33.59277c-1.37891-0.06689-2.44238-1.23877-2.37598-2.61768
			c0.06641-1.37988,1.24609-2.43848,2.61816-2.37646c31.54688,1.52637,54.03516,25.29492,62.24023,35.44336
			c0.86816,1.07373,0.70117,2.64795-0.37305,3.51611C1272.16663,460.06912,1271.61096,460.25076,1271.0592,460.25076z"/>
	</g>
	<g>
		<path fill="#D66C5B" d="M1243.41174,436.08572c-0.5625,0-1.12793-0.18848-1.59473-0.5752
			c-1.0625-0.88135-1.20996-2.45752-0.3291-3.52051c0.48242-0.58203,1.04883-1.09131,1.64746-1.62988
			c2.35742-2.12305,5.9209-5.33057,6.13379-16.67676c0.02734-1.38037,1.18652-2.48389,2.54688-2.45264
			c1.38086,0.02588,2.47852,1.16602,2.45312,2.54639c-0.25488,13.5166-4.9707,17.76221-7.78906,20.29883
			c-0.47949,0.43115-0.89258,0.80371-1.14258,1.10547C1244.84338,435.77762,1244.12952,436.08572,1243.41174,436.08572z"/>
	</g>
	<g>
		<path fill="#D66C5B" d="M1249.21936,487.71024c-0.09668,0-0.19434-0.00537-0.29297-0.01709
			c-22.66699-2.64893-39.59766-25.56494-40.30664-26.53955c-0.8125-1.11523-0.56738-2.67773,0.54785-3.49072
			c1.11426-0.81445,2.67871-0.56885,3.49219,0.5459c0.16211,0.22119,16.37402,22.12549,36.84668,24.51855
			c1.37109,0.16016,2.35352,1.40186,2.19336,2.77295C1251.55042,486.77322,1250.47034,487.71024,1249.21936,487.71024z"/>
	</g>
	<g>
		<path fill="#D66C5B" d="M1201.06506,466.57889c-1.13672,0-2.16504-0.77979-2.43262-1.93408
			c-0.3125-1.34326,0.52148-2.68506,1.86328-3c0.13281-0.03223,8.39062-2.08203,13.68262-9.07422
			c0.83203-1.1001,2.40039-1.31836,3.50195-0.48486c1.10059,0.8335,1.31836,2.40137,0.48438,3.50244
			c-6.42871,8.49512-16.12207,10.83008-16.53125,10.92529C1201.44299,466.55789,1201.25256,466.57889,1201.06506,466.57889z"/>
	</g>
	<g>
		<path fill="#D66C5B" d="M1301.40979,432.60477c-11.33398,0-20.84766-5.06787-21.33105-5.33008
			c-1.21387-0.65771-1.66504-2.1748-1.00781-3.38916c0.65625-1.21289,2.17188-1.66406,3.38672-1.00879l0,0
			c0.12793,0.06934,12.98438,6.88428,25.4834,4.01758c1.35059-0.30762,2.6875,0.5332,2.99512,1.87842
			c0.30859,1.34619-0.53223,2.68701-1.87793,2.99561C1306.47229,432.36063,1303.89612,432.60477,1301.40979,432.60477z"/>
	</g>
	<g>
		<path fill="#D66C5B" d="M1311.47815,439.63162c-0.69727,0-1.3916-0.29004-1.88574-0.85742
			c-5.61719-6.44385-2.65332-18.48193-2.52441-18.99121c0.33984-1.33838,1.69629-2.1499,3.03711-1.81006
			c1.33789,0.33838,2.14746,1.69629,1.81152,3.03369l0,0c-0.69434,2.771-1.78711,10.77393,1.44531,14.48242
			c0.90723,1.04053,0.79883,2.62012-0.24219,3.52734C1312.64612,439.42899,1312.06116,439.63162,1311.47815,439.63162z"/>
	</g>
	<g>
		<path fill="#D66C5B" d="M1091.73792,421.79373c-1.10645,0-2.11816-0.74023-2.41504-1.86035
			c-0.35352-1.33447,0.44238-2.70312,1.77637-3.05664c5.54785-1.47021,11.48828-5.21875,11.54785-5.25635
			c1.16309-0.73926,2.70898-0.39697,3.4502,0.76904c0.74023,1.16455,0.39746,2.70898-0.76758,3.44971
			c-0.26758,0.1709-6.63965,4.19873-12.94922,5.87061C1092.16565,421.76688,1091.94983,421.79373,1091.73792,421.79373z"/>
	</g>
	<g>
		<path fill="#D66C5B" d="M1200.08362,393.19119c-6.21289,0-12.39062-2.51855-18.09082-7.41895
			c-4.91504-4.2251-7.32617-12.12012-6.79004-22.23047c0.71484-13.4834,7.00293-30.97266,17.63672-38.31104
			c1.13477-0.78467,2.69238-0.5,3.47754,0.6377c0.78418,1.13623,0.49902,2.69336-0.6377,3.47754
			c-8.08105,5.57666-14.7373,20.3916-15.4834,34.46045c-0.44629,8.4043,1.39746,15.02832,5.05664,18.17383
			c4.08594,3.51172,10.58105,7.38281,18.32422,5.87061c9.77246-1.90771,19.20215-11.57471,28.0293-28.73193
			c0.63184-1.22754,2.1377-1.71045,3.36621-1.07959c1.22754,0.63184,1.71094,2.13916,1.0791,3.3667
			c-9.5625,18.58789-20.16602,29.13623-31.5166,31.35205C1203.05334,393.04715,1201.56702,393.19119,1200.08362,393.19119z"/>
	</g>
	<g>
		<path fill="#D66C5B" d="M1243.4137,367.22977c-0.68848,0-1.37402-0.28271-1.86816-0.83789
			c-7.8291-8.79443-20.23926-8.31885-20.36426-8.3125c-1.40625,0.07861-2.5498-1.00098-2.61426-2.38037
			c-0.06445-1.37891,1.00098-2.54932,2.37988-2.61377c0.60742-0.03125,14.93457-0.57568,24.33301,9.98242
			c0.91797,1.03125,0.82617,2.61133-0.20508,3.5293C1244.59827,367.02127,1244.00452,367.22977,1243.4137,367.22977z"/>
	</g>
	<g>
		<path fill="#D66C5B" d="M1235.84436,414.59695c-7.33203,0.00098-12.16602-3.04492-14.75684-5.32617
			c-8.27051-7.28174-9.70605-19.39209-5.46387-25.35449c0.80078-1.12549,2.36328-1.38623,3.48633-0.58789
			c1.125,0.80078,1.38867,2.36133,0.58789,3.48633c-2.88672,4.05762-1.43652,13.30566,4.69434,18.70361
			c9.7998,8.62891,26.19238,3.63965,44.96973-13.69287c0.10742-0.09961,0.22363-0.18945,0.34766-0.26855
			c4.51367-2.88916,6.24121-7.07275,6.25781-7.11475c0.51562-1.27588,1.96777-1.90283,3.24414-1.39355
			c1.27832,0.50781,1.9082,1.94727,1.40723,3.22803c-0.08984,0.22803-2.23242,5.57666-8.02344,9.36816
			C1256.60315,410.36111,1244.48792,414.59647,1235.84436,414.59695z"/>
	</g>
	<g>
		<path fill="#D66C5B" d="M1149.52014,452.11111c-1.19531,0-2.25098-0.85791-2.45898-2.0752
			c-0.03906-0.22754-3.6416-22.83887,17.93262-31.94287c1.27148-0.53467,2.73828,0.05908,3.27539,1.33105
			c0.53613,1.27246-0.05957,2.73877-1.33203,3.27539c-17.87109,7.5415-15.07422,25.72852-14.94727,26.49902
			c0.22559,1.35986-0.69043,2.64844-2.0498,2.87744C1149.79944,452.09988,1149.65881,452.11111,1149.52014,452.11111z"/>
	</g>
	<g>
		<path fill="#D66C5B" d="M1172.55823,427.57693c-0.38965,0-0.78516-0.09131-1.1543-0.28369
			c-6.89746-3.59766-10.56641-10.26611-11.26172-12.93164c-0.34863-1.33594,0.45117-2.70166,1.78711-3.05029
			c1.33887-0.34863,2.70312,0.45166,3.05078,1.7876c0.25879,0.99121,2.81738,6.67432,8.73633,9.76074
			c1.22363,0.63867,1.69922,2.14844,1.06055,3.37305C1174.33069,427.08768,1173.45959,427.57693,1172.55823,427.57693z"/>
	</g>
	<g>
		<path fill="#D66C5B" d="M1126.11389,436.08572c-0.7002,0-1.39551-0.29199-1.89062-0.86279
			c-0.9043-1.04346-0.79102-2.62207,0.25195-3.52637c19.5791-16.96826,23.18555-29.36377,12.44922-42.78418
			c-13.35449-16.69238-42.70996,0.41455-43.00488,0.58838c-0.77148,0.45801-1.73145,0.46777-2.51172,0.02197
			c-0.78027-0.44434-1.26367-1.27246-1.26367-2.17041c0-0.45264,0.04102-4.50684,1.53809-7.50146
			c0.61719-1.23584,2.11719-1.73584,3.35449-1.11768c1.23438,0.61719,1.73535,2.11914,1.11816,3.354
			c-0.11914,0.2373-0.22461,0.49756-0.31836,0.771c9.61914-4.59668,32.29297-12.94385,44.99219,2.93115
			c16.05957,20.07373,1.44629,37.09717-13.07812,49.68555C1127.27698,435.88504,1126.69397,436.08572,1126.11389,436.08572z"/>
	</g>
	<g>
		<path fill="#D66C5B" d="M1108.73792,419.01248c-1.08887,0-2.09082-0.7168-2.40332-1.81592
			c-1.01758-3.57568-5.79395-7.58154-7.54785-8.82324c-1.12598-0.79736-1.39453-2.35693-0.59863-3.48389
			c0.79688-1.12695,2.35449-1.39551,3.48145-0.60156c0.79199,0.55859,7.79102,5.62842,9.47363,11.53955
			c0.37793,1.32812-0.3916,2.71094-1.71973,3.08887C1109.19495,418.98172,1108.96448,419.01248,1108.73792,419.01248z"/>
	</g>
	<g>
		<path fill="#D66C5B" d="M1130.65002,439.63211c-0.32324,0-0.65137-0.06299-0.96777-0.1958
			c-5.42188-2.2793-8.72363-6.39307-8.86133-6.56689c-0.85742-1.08203-0.67578-2.6543,0.40625-3.51221
			c1.08008-0.85547,2.64941-0.67529,3.50781,0.40137c0.05371,0.06592,2.70703,3.31201,6.88477,5.06836
			c1.27246,0.53516,1.87109,2.00049,1.33594,3.27344C1132.55334,439.05692,1131.62659,439.63211,1130.65002,439.63211z"/>
	</g>
	<g>
		<path fill="#D66C5B" d="M1150.89709,367.39383c-10.85938,0-28.53223-1.84082-41.11621-17.25098
			c-0.87305-1.06934-0.71387-2.64404,0.35547-3.51758c1.06934-0.87451,2.64453-0.71387,3.51758,0.35547
			c13.33008,16.32373,33.62695,15.60986,42.29688,15.30225c0.58398-0.02051,1.12109-0.03955,1.60645-0.05225
			c0.02246-0.00049,0.04492-0.00098,0.06641-0.00098c1.35059,0,2.46289,1.07666,2.49805,2.43457
			c0.03613,1.38037-1.05371,2.52832-2.43359,2.56445c-0.47168,0.0127-0.99414,0.03076-1.56152,0.05078
			C1154.66467,367.33133,1152.89612,367.39383,1150.89709,367.39383z"/>
	</g>
	<g>
		<path fill="#D66C5B" d="M1134.66858,364.32254c-1.31445,0-2.41699-1.02588-2.49414-2.35498
			c-1.27344-21.91699,16.28809-41.8208,17.03613-42.65723c0.91895-1.02881,2.49805-1.11719,3.52832-0.19727
			c1.0293,0.91943,1.11816,2.49951,0.19922,3.5293c-0.16895,0.18994-16.92383,19.21582-15.77148,39.03516
			c0.08008,1.37842-0.97266,2.56055-2.35059,2.64062C1134.76624,364.32108,1134.71741,364.32254,1134.66858,364.32254z"/>
	</g>
	<g>
		<path fill="#D66C5B" d="M1155.19006,324.18631c-0.06445,0-0.12988-0.00244-0.19434-0.00732
			c-4.30371-0.33105-7.875-2.73584-8.02441-2.83838c-1.14062-0.77783-1.43555-2.33301-0.65723-3.47363
			c0.77637-1.13965,2.3291-1.43408,3.46777-0.66113c0.07129,0.04736,2.67871,1.76318,5.59668,1.98779
			c1.37695,0.10596,2.40723,1.30762,2.30078,2.68457C1157.57874,323.18924,1156.48303,324.18631,1155.19006,324.18631z"/>
	</g>
	<g>
		<path fill="#D66C5B" d="M1047.14807,416.26053c-0.49902,0-0.82422-0.0376-0.94141-0.05371
			c-1.36719-0.18848-2.32324-1.4502-2.13477-2.81836c0.1875-1.35449,1.4248-2.30566,2.78223-2.13965
			c0.20117,0.01904,3.32324,0.2583,7.37793-2.89551c1.08984-0.84814,2.66113-0.65137,3.50879,0.43799
			c0.84766,1.08984,0.65137,2.66064-0.43848,3.5083C1052.80725,415.79568,1048.90393,416.26053,1047.14807,416.26053z"/>
	</g>
	<g>
		<path fill="#D66C5B" d="M1052.86877,373.59012c-9.37402,0-11.31836-5.93164-11.4043-6.20996
			c-0.40625-1.31982,0.33496-2.71875,1.6543-3.12451c1.29688-0.3999,2.66992,0.30859,3.10254,1.58643
			c0.10156,0.24805,1.59766,3.52979,9.23535,2.57666c1.36914-0.1748,2.61914,0.80029,2.79102,2.17041
			s-0.80078,2.61963-2.16992,2.79053C1054.92151,373.5242,1053.85413,373.59012,1052.86877,373.59012z"/>
	</g>
	<g>
		<path fill="#D66C5B" d="M1064.87756,349.78592c-0.40332,0-0.81152-0.09766-1.19043-0.30322l-13.72168-7.4458
			c-1.21387-0.6582-1.66309-2.17627-1.00488-3.38965c0.6582-1.21387,2.17676-1.6626,3.38965-1.00488l13.72168,7.4458
			c1.21387,0.6582,1.66309,2.17627,1.00488,3.38965C1066.62366,349.31229,1065.76428,349.78592,1064.87756,349.78592z"/>
	</g>
	<g>
		<path fill="#D66C5B" d="M1048.74475,346.06277c-1.3125,0-2.41309-1.02246-2.49316-2.34912
			c-0.27734-4.58545,4.15234-8.68799,4.6582-9.14111c1.02734-0.91992,2.6084-0.83252,3.53027,0.19629
			c0.91895,1.02734,0.83301,2.60547-0.19238,3.52637c-1.02637,0.92871-3.10938,3.39893-3.00586,5.1167
			c0.08398,1.37842-0.96582,2.56299-2.34473,2.64648C1048.84631,346.06131,1048.79456,346.06277,1048.74475,346.06277z"/>
	</g>
	<g>
		<path fill="#EA8681" d="M242.68617,521.88995c-0.67041,0-1.33838-0.26758-1.83105-0.79736
			c-0.94043-1.01074-0.8833-2.59229,0.12744-3.53271c0.14209-0.1333,8.85107-8.36673,13.86768-20.20657
			c0.53857-1.27051,2.00584-1.8667,3.27684-1.32617c1.27148,0.53857,1.86523,2.00586,1.32666,3.27734
			c-5.46385,12.89505-14.67577,21.55374-15.06541,21.91605C243.90688,521.66827,243.29555,521.88995,242.68617,521.88995z"/>
	</g>
	<g>
		<path fill="#8BBDD1" d="M643.90833,612.15021c-0.00293,0-0.00635,0-0.00977,0l-38.57617-0.15234
			c-0.68604-0.00293-1.34033-0.28711-1.81055-0.78613c-0.47021-0.49951-0.71436-1.16992-0.67578-1.85449l5.67285-100.63821
			c0.07812-1.37939,1.27734-2.43066,2.63672-2.35547c1.37842,0.07764,2.43311,1.2583,2.35547,2.63672l-5.52441,98.00784
			l35.94141,0.14209c1.38086,0.00537,2.49561,1.12939,2.49023,2.50977C646.40295,611.03741,645.28479,612.15021,643.90833,612.15021
			z"/>
	</g>
	<g>
		<path fill="#8BBDD1" d="M449.52161,725.58966c-0.05225,0-0.10449-0.00146-0.15723-0.00488
			c-1.37793-0.08545-2.42578-1.27148-2.34033-2.6499l6.0459-97.55176c0.08496-1.37793,1.26709-2.43164,2.6499-2.34033
			c1.37793,0.08545,2.42578,1.27148,2.34033,2.6499l-6.0459,97.55176C451.93225,724.56964,450.83167,725.58966,449.52161,725.58966z
			"/>
	</g>
	<g>
		<path fill="#E58061" d="M403.51526,765.0965c-1.02051,0-1.979-0.62988-2.34912-1.64551l-6.64648-18.24316
			c-0.47266-1.29736,0.19629-2.73242,1.49316-3.20508c1.29834-0.46973,2.73193,0.1958,3.20508,1.49316l6.64648,18.24414
			c0.47266,1.29688-0.19629,2.73145-1.49316,3.2041C404.0885,765.04767,403.79944,765.0965,403.51526,765.0965z"/>
	</g>
	<g>
		<path fill="#8BBDD1" d="M523.07483,1067.77319c-0.02783,0-0.05518,0-0.0835-0.00098
			c-27.59668-0.90527-44.40723-11.51367-53.6499-20.25391c-10.09863-9.5498-13.57129-18.86426-13.71436-19.25586
			c-0.47314-1.29688,0.19482-2.73242,1.49219-3.20508c1.29346-0.47461,2.72852,0.19238,3.20312,1.4873l0,0
			c0.52197,1.41211,13.354,34.6084,62.83301,36.22949c1.37988,0.0459,2.46191,1.20117,2.4165,2.58105
			C525.52747,1066.70679,524.4176,1067.77319,523.07483,1067.77319z"/>
	</g>
	<g>
		<path fill="#8BBDD1" d="M531.06165,1040.43237c-13.05273,0-20.96924-1.50098-21.6626-1.63867
			c-1.35352-0.26758-2.23389-1.58105-1.96729-2.93555s1.57861-2.23145,2.93506-1.96973
			c0.36133,0.07129,36.57764,6.88086,84.22559-9.48438c1.31006-0.44818,2.72803,0.24707,3.17627,1.55176
			c0.44873,1.30664-0.24609,2.72852-1.55225,3.17676C569.54993,1038.29175,546.64514,1040.43237,531.06165,1040.43237z"/>
	</g>
	<g>
		<path fill="#8BBDD1" d="M758.78577,433.53299c-0.60107,0-1.2041-0.21533-1.68311-0.65186
			c-1.02051-0.92969-1.09424-2.51123-0.16455-3.53174l7.65869-8.40674c0.9292-1.021,2.51172-1.09424,3.53174-0.16455
			c1.02051,0.92969,1.09424,2.51123,0.16455,3.53174l-7.65869,8.40674C760.14124,433.25809,759.46448,433.53299,758.78577,433.53299
			z"/>
	</g>
	<g>
		<path fill="#3C2D2B" d="M621.41418,165.82986c-22.02637,0-33.54541-6.20703-34.1543-6.54492
			c-1.20752-0.66943-1.64404-2.19092-0.97461-3.39844c0.66797-1.20605,2.18652-1.64258,3.39258-0.97803l0,0
			c0.17871,0.09814,18.24609,9.70264,52.34229,4.18994c1.36377-0.22559,2.64697,0.70557,2.8667,2.06885
			c0.2207,1.36279-0.70557,2.64648-2.06885,2.8667C634.83606,165.32449,627.69641,165.82986,621.41418,165.82986z"/>
	</g>
	<g>
		<path fill="#3C2D2B" d="M702.90979,211.6741c-0.82666,0-1.63525-0.40967-2.11182-1.1582
			c-0.74121-1.16504-0.39746-2.71045,0.76709-3.45166c0.31055-0.19824,32.91309-18.66211,55.15039-4.49219
			c1.16406,0.74219,1.50635,2.2876,0.76465,3.45215c-0.74219,1.16309-2.2876,1.50586-3.45215,0.76465
			c-19.41406-12.375-49.49414,4.31299-49.77832,4.49414C703.83362,211.54764,703.36877,211.6741,702.90979,211.6741z"/>
	</g>
	<g>
		<path fill="#3C2D2B" d="M745.16907,173.42703c-0.36133,0-0.72852-0.07861-1.07666-0.24512
			c-11.80566-5.64551-24.71924-0.03027-24.84814,0.02734c-1.26123,0.55811-2.73828-0.00488-3.30029-1.26367
			c-0.5625-1.25928-0.00146-2.73486,1.25635-3.2998c0.61084-0.27393,15.11621-6.63818,29.04932,0.02539
			c1.24561,0.5957,1.77246,2.08838,1.17676,3.33398C746.99719,172.90262,746.10217,173.42703,745.16907,173.42703z"/>
	</g>
	<g>
		<path fill="#3C2D2B" d="M620.63928,132.90262c-0.02979,0-0.06006-0.00049-0.09033-0.00146
			c-54.30371-1.92725-54.14453-37.93114-54.11133-39.46288c0.03027-1.38135,1.1792-2.48682,2.55371-2.44531
			c1.38037,0.03027,2.4751,1.17334,2.44531,2.55371c-0.0293,1.33057-0.14111,32.60303,49.29004,34.35742
			c1.37988,0.04932,2.4585,1.20751,2.40967,2.58739C623.0885,131.84109,621.97913,132.90262,620.63928,132.90262z"/>
	</g>
	<g>
		<path fill="#E58061" d="M950.82483,776.22345c-0.41602,0-0.83594-0.10352-1.22363-0.32129
			c-1.2041-0.67676-1.62988-2.20117-0.95312-3.4043l8.84863-15.72559c0.67773-1.20508,2.20215-1.62891,3.4043-0.95312
			c1.2041,0.67676,1.62988,2.20117,0.95312,3.4043l-8.84863,15.72559C952.54651,775.76544,951.69788,776.22345,950.82483,776.22345z
			"/>
	</g>
	<g>
		<path fill="#E58061" d="M1082.69885,595.37872c-1.38086,0-2.5-1.11914-2.5-2.5s1.11914-2.5,2.5-2.5
			c21.87305,0,35.27832-23.3999,35.41113-23.63623c0.67676-1.20361,2.20215-1.63086,3.4043-0.9541
			c1.2041,0.67627,1.63086,2.20068,0.95508,3.4043C1121.8678,570.26154,1107.46545,595.37872,1082.69885,595.37872z"/>
	</g>
	<g>
		<path fill="#E58061" d="M1149.27893,634.14728c-0.49023,0-0.98535-0.14355-1.41895-0.44287
			c-1.13574-0.78467-1.4209-2.3418-0.63574-3.47803c12.71875-18.41211,12.83691-45.87207,12.83691-46.14746
			c-0.00098-1.38037,1.11719-2.50098,2.49707-2.50244c0.00098,0,0.00195,0,0.00293,0c1.37988,0,2.49902,1.11768,2.5,2.49756
			c0.00098,1.1875-0.12598,29.31055-13.72363,48.99414C1150.85315,633.77032,1150.0719,634.14728,1149.27893,634.14728z"/>
	</g>
	<g>
		<path fill="#E58061" d="M1162.5592,588.38995c-1.32129,0-2.42578-1.03564-2.49512-2.37061
			c-0.07129-1.37891,0.98828-2.55469,2.36719-2.62598l23.57812-1.22314c1.38867-0.08789,2.55469,0.98877,2.62695,2.36719
			c0.07129,1.37891-0.98828,2.55469-2.36719,2.62598l-23.57812,1.22314
			C1162.64709,588.38898,1162.60217,588.38995,1162.5592,588.38995z"/>
	</g>
	<g>
		<path fill="#E58061" d="M1160.80139,609.62384c-1.3418,0-2.45215-1.06494-2.49707-2.41699
			c-0.0459-1.37988,1.03613-2.53564,2.41602-2.58154l23.7627-0.79102c1.39453-0.03613,2.53613,1.03467,2.58203,2.41553
			c0.0459,1.37988-1.03613,2.53564-2.41602,2.58154l-23.7627,0.79102
			C1160.85803,609.62335,1160.82971,609.62384,1160.80139,609.62384z"/>
	</g>
	<g>
		<path fill="#E58061" d="M1178.97717,632.07208c-0.02734,0-0.05469-0.00049-0.08105-0.00146l-27.7998-0.88428
			c-1.38086-0.04346-2.46387-1.19824-2.41992-2.57812c0.04297-1.35303,1.15332-2.42041,2.49707-2.42041
			c0.02734,0,0.05469,0.00049,0.08105,0.00146l27.7998,0.88428c1.38086,0.04346,2.46387,1.19824,2.41992,2.57812
			C1181.43127,631.0047,1180.32092,632.07208,1178.97717,632.07208z"/>
	</g>
	<g>
		<path fill="#FF9C7D" d="M638.46881,289.44296c-19.52197-2.42813-23.03516-30.67123,19.43591-34.27046
			C700.37579,251.57326,684.36652,295.15167,638.46881,289.44296z"/>
	</g>
	<g>
		<path fill="#E58061" d="M287.08167,574.21124c-31.54881,0-39.18993-19.79102-39.50926-20.66016
			c-0.47607-1.29639,0.18848-2.73291,1.48438-3.20898c1.29443-0.47412,2.7251,0.18506,3.20508,1.47412
			c0.29492,0.77783,7.39696,18.53857,37.76561,17.33496c1.36768-0.06641,2.54297,1.01807,2.59814,2.39795
			s-1.01855,2.54297-2.39795,2.59814C289.15491,574.19025,288.10364,574.21124,287.08167,574.21124z"/>
	</g>
	<g>
		<path fill="#E58061" d="M233.51625,607.00616c-0.98877,0-1.92529-0.59033-2.31836-1.56299
			c-8.14111-20.12744-12.04785-45.45459-12.21045-46.52295c-0.20752-1.36475,0.73096-2.63965,2.0957-2.84717
			c1.3623-0.20459,2.63965,0.73047,2.84766,2.0957c0.03906,0.25635,3.98535,25.82617,11.90186,45.39941
			c0.51807,1.28027-0.1001,2.7373-1.37988,3.25488C234.14565,606.94757,233.82826,607.00616,233.51625,607.00616z"/>
	</g>
	<g>
		<path fill="#546A81" d="M655.0094,1138.24292c-28.08691,0-54.13135-1.54004-76.16943-3.55078
			c-61.95166-5.65137-106.43213-16.13672-106.87402-16.24219c-1.34326-0.31934-2.17285-1.66699-1.85303-3.01074
			c0.31982-1.34277,1.66602-2.17578,3.01123-1.85254c0.43896,0.10449,44.63867,10.51855,106.25488,16.13379
			c56.7959,5.1748,140.4292,7.21484,216.33545-12.45312c1.33398-0.34766,2.70068,0.45605,3.04688,1.79297
			c0.34668,1.33594-0.45605,2.70117-1.79297,3.04688C749.85608,1134.31519,699.83899,1138.24292,655.0094,1138.24292z"/>
	</g>
	<g>
		<path fill="#546A81" d="M740.40491,1143.67847c-1.38086,0-2.5-1.11914-2.5-2.5v-31.71289c0-1.38086,1.11914-2.5,2.5-2.5
			s2.5,1.11914,2.5,2.5v31.71289C742.90491,1142.55933,741.78577,1143.67847,740.40491,1143.67847z"/>
	</g>
	<g>
		<path fill="#546A81" d="M716.81653,1145.25171c-1.38086,0-2.5-1.11914-2.5-2.5v-28.65625c0-1.38086,1.11914-2.5,2.5-2.5
			s2.5,1.11914,2.5,2.5v28.65625C719.31653,1144.13257,718.19739,1145.25171,716.81653,1145.25171z"/>
	</g>
	<g>
		<path fill="#E58061" d="M1084.09729,652.16583c-9.7832,0-14.30176-5.20654-14.48926-5.42773
			c-0.8916-1.0542-0.76074-2.63184,0.29297-3.52344c1.04785-0.88672,2.61328-0.76221,3.50781,0.27441
			c0.17188,0.19238,3.39746,3.67676,10.68848,3.67676c1.38086,0,2.5,1.11914,2.5,2.5S1085.47815,652.16583,1084.09729,652.16583z"/>
	</g>
	<g>
		<path fill="#B8D6E8" d="M431.13293,1086.61108c-0.5874,0-1.17676-0.20605-1.65186-0.62402
			c-31.61084-27.86133-22.48877-83.35541-22.08496-85.70404c0.23438-1.35938,1.5249-2.27148,2.88672-2.04004
			c1.36035,0.2334,2.27393,1.52637,2.04102,2.88672c-0.09375,0.54785-9.04053,55.10248,20.46289,81.10541
			c1.03613,0.91309,1.13574,2.49316,0.22266,3.5293C432.51526,1086.32495,431.82581,1086.61108,431.13293,1086.61108z"/>
	</g>
	<g>
		<path fill="#B8D6E8" d="M948.50745,484.25174c-1.02148,0.00049-1.98047-0.63037-2.34961-1.646
			c-9.23145-25.38574-24.44629-40.94434-45.22363-46.24365c-15.57422-3.97363-28.67578-0.40576-28.80566-0.36963
			c-1.33203,0.37061-2.70801-0.40332-3.08203-1.73047c-0.37305-1.32764,0.39746-2.70703,1.72559-3.08203
			c0.57812-0.1626,14.33203-3.94775,31.16699,0.27881c15.5332,3.8999,36.62891,15.64307,48.91797,49.43799
			c0.47168,1.29785-0.19727,2.73193-1.49512,3.2041C949.07971,484.2034,948.79163,484.25174,948.50745,484.25174z"/>
	</g>
	<g>
		<path fill="#E9F3F4" d="M425.70667,527.86896c-0.25928,0-0.52246-0.04053-0.78223-0.12598
			c-1.30322-0.42871-2.01562-1.82666-1.60107-3.13086c0.04102-0.14355,0.11182-0.44336,0.21777-0.88379
			c5.16602-21.4014,12.87598-36.87454,18.43408-46.08646c15.73145-26.07422,36.47119-40.25635,61.65039-42.16113
			c12.41162-6.61963,27.44678-8.67383,28.08887-8.75879c1.36963-0.18604,2.62451,0.78027,2.80664,2.14795
			c0.18213,1.36865-0.7793,2.62549-2.14746,2.80811c-0.15039,0.02002-15.16748,2.08105-26.83496,8.45215
			c-0.31689,0.17285-0.66748,0.27539-1.02734,0.2998c-52.57031,3.59912-71.5459,65.56494-76.10938,84.47122
			c-0.16309,0.67432-0.27197,1.09961-0.32129,1.24902C427.7345,527.20197,426.75696,527.86896,425.70667,527.86896z"/>
	</g>
	<g>
		<path fill="#E9F3F4" d="M712.94348,299.96609c-0.74658,0-1.43066-0.02734-2.04395-0.06934
			c-1.37744-0.09473-2.41699-1.28857-2.32227-2.66602c0.09521-1.37695,1.28613-2.41162,2.66602-2.32227
			c13.98047,0.96387,25.83936-8.78906,32.54932-26.75439c0.48242-1.29297,1.9248-1.95166,3.21631-1.46729
			c1.29346,0.48291,1.95068,1.92285,1.46729,3.21631C738.6178,296.2991,721.61243,299.96609,712.94348,299.96609z"/>
	</g>
	<g>
		<path fill="#E9F3F4" d="M620.63928,178.94608c-0.0249,0-0.0498-0.00049-0.07471-0.00098
			c-79.98096-2.34131-99.00879-38.69092-99.77979-40.2373c-0.61621-1.23535-0.11377-2.73633,1.12207-3.35254
			c1.23291-0.61572,2.72949-0.11572,3.34814,1.11328l0,0c0.1792,0.35205,18.77783,35.23438,95.45605,37.47852
			c1.37988,0.04053,2.46631,1.19189,2.42578,2.57227C623.09729,177.8743,621.98596,178.94608,620.63928,178.94608z"/>
	</g>
	<g>
		<path fill="#E58061" d="M979.95667,955.49591c-0.51465,0-1.0332-0.1582-1.47949-0.48633
			c-15.83789-11.64453-27.74414-0.67676-28.24414-0.20508c-1,0.94629-2.58008,0.9082-3.53125-0.08594
			c-0.9502-0.99609-0.91992-2.57031,0.07324-3.52441c0.15039-0.14648,15.36621-14.4043,34.66504-0.21191
			c1.1123,0.81738,1.35059,2.38184,0.53223,3.49512C981.48303,955.14337,980.72522,955.49591,979.95667,955.49591z"/>
	</g>
	<g>
		<path fill="#E58061" d="M400.19006,939.24689c-0.37646,0-0.75879-0.08594-1.11816-0.26562
			c-15.60498-7.82227-22.01465-6.66113-24.44775-5.27441c-2.09619,1.19629-2.32422,3.19238-2.32568,3.21191
			c-0.09521,1.37793-1.29492,2.41895-2.6665,2.32129c-1.37744-0.0957-2.41699-1.28906-2.32178-2.66699
			c0.11914-1.7207,1.27148-5.1748,4.83594-7.20898c5.86426-3.34766,15.67725-1.61523,29.16602,5.14648
			c1.23438,0.61914,1.7334,2.12109,1.11475,3.35547C401.9884,938.74103,401.10608,939.24689,400.19006,939.24689z"/>
	</g>
	<g>
		<path fill="#8BBDD1" d="M593.24084,441.10672c-0.82275,0-1.62793-0.40576-2.10596-1.14893
			c-0.74609-1.16162-0.40967-2.7085,0.75195-3.45508l4.1001-2.63428c1.16357-0.74658,2.70898-0.40869,3.45508,0.75195
			c0.74609,1.16162,0.40967,2.7085-0.75195,3.45508l-4.1001,2.63428C594.17151,440.9783,593.70325,441.10672,593.24084,441.10672z"
			/>
	</g>
	<g>
		<path fill="#8BBDD1" d="M687.32922,440.48172c-0.54199,0-1.0874-0.1748-1.5459-0.53613l-4.32471-3.40723
			c-1.08447-0.85449-1.271-2.42627-0.4165-3.51123c0.854-1.08594,2.42627-1.271,3.51123-0.4165l4.32471,3.40723
			c1.08447,0.85449,1.271,2.42627,0.4165,3.51123C688.80139,440.15506,688.06848,440.48172,687.32922,440.48172z"/>
	</g>
	<g>
		<path fill="#546A81" d="M1161.56213,955.49689c-0.56641,0-1.13477-0.19043-1.60254-0.58203
			c-1.05957-0.88574-1.2002-2.46289-0.31445-3.52148c13.0293-15.58105,25.4248-31.88086,36.8418-48.44629
			c0.78418-1.1377,2.33887-1.4248,3.47754-0.63965c1.13672,0.7832,1.42285,2.34082,0.63965,3.47754
			c-11.50488,16.69238-23.99512,33.11621-37.12305,48.81543C1162.98694,955.1922,1162.27698,955.49689,1161.56213,955.49689z"/>
	</g>
	<g>
		<path fill="#546A81" d="M950.82776,1123.37769c-0.95996,0-1.87598-0.55762-2.28809-1.49316
			c-0.55762-1.2627,0.01562-2.73828,1.2793-3.2959c0.87988-0.3877,89.08691-39.87598,177.26074-131.01166
			c0.95996-0.99219,2.54395-1.01758,3.53516-0.05859c0.99219,0.95996,1.01855,2.54297,0.05859,3.53516
			c-88.89551,91.8808-177.9502,131.71967-178.83887,132.11127C951.50647,1123.30933,951.16467,1123.37769,950.82776,1123.37769z"/>
	</g>
	<g>
		<path fill="#546A81" d="M313.64856,351.0618c-0.78271,0-1.55322-0.36621-2.04053-1.05322
			c-0.79932-1.12598-0.53418-2.68652,0.5918-3.48535c0.61035-0.43311,61.90332-43.68799,137.86377-76.35938
			c1.26758-0.54736,2.73828,0.04004,3.28418,1.30859s-0.04004,2.73877-1.30859,3.28418
			c-75.45459,32.4541-136.33936,75.41406-136.9458,75.84375C314.65442,350.91238,314.14905,351.0618,313.64856,351.0618z"/>
	</g>
	<g>
		<path fill="#FFAD9F" d="M1224.68945,314.40884c-21.95142,3.40091-19.09692,21.54163,5.43018,27.79208
			c24.52722,6.25046,24.86768,18.5058,35.4209,10.33557C1276.09363,344.36627,1248.85962,310.66415,1224.68945,314.40884z"/>
	</g>
	<g>
		<path fill="#FFAD9F" d="M1173.26404,323.08969c-10.89368-4.25531-12.93616-21.10638,3.23401-15.14893
			C1192.66833,313.89819,1184.15759,327.345,1173.26404,323.08969z"/>
	</g>
	<g>
		<path fill="#FFAD9F" d="M1173.82568,460.7179c-19.604-3.22897-18.63831-30.12766,5.10645-26.55319
			C1202.67676,437.73917,1200.17749,465.05832,1173.82568,460.7179z"/>
	</g>
	<g opacity="0.48">
		<path fill="#EA8681" d="M130.37477,463.20615c39.57573-21.23798,24.11208-74.21277-13.64827-52.76596
			S88.50679,485.67422,130.37477,463.20615z"/>
	</g>
</g>
</svg>
