<svg id="Layer_1" data-name="Layer 1" xmlns="http://www.w3.org/2000/svg" viewBox="0 0 132.87 119.29"><defs><style>.cls-1{fill:#8b9ed1;}.cls-1,.cls-10,.cls-11,.cls-12,.cls-13,.cls-14,.cls-15,.cls-2,.cls-3,.cls-4,.cls-5,.cls-6,.cls-7,.cls-8,.cls-9{fill-rule:evenodd;}.cls-2{fill:#7190ca;}.cls-4{fill:#faca50;}.cls-5{fill:#fff;}.cls-6{fill:#8eb6ea;}.cls-7{fill:#6885c2;}.cls-8{fill:#c9dcf5;}.cls-9{fill:#009fa2;}.cls-10{fill:#59c1c2;}.cls-11{fill:#008183;}.cls-12{fill:#ffe1d7;}.cls-13{fill:#edb9a9;}.cls-14{fill:#62392b;}.cls-15{fill:#984f46;}</style></defs><path class="cls-1" d="M5.47,69.66l1.38-10S24,48.38,16,32.06,52.72,0,90.78,0s34.69,25.5,31.12,34.5,4.52,12.13,7.68,23.27,2.26,21.82-2.61,29.7-19.13,14.79-19.13,14.79l-.45,1.24a224.48,224.48,0,0,1-51.91,7.62c-28.22.65-38.56-6.38-45.09-12S0,79.41,5.47,69.66Z"/><path class="cls-2" d="M5.47,69.66l1.38-10S18.52,52,18.11,40.15h0a18.36,18.36,0,0,0-.67-4.26c18.23-6.33,56.42-19.41,64.75-17.63C90.72,20.09,110,43,117,51.48c1.33-.08,4.09-1.78,7.44-4.24a37.56,37.56,0,0,1,5.17,10.53c3.17,11.15,2.26,21.82-2.61,29.7s-19.13,14.79-19.13,14.79l-.45,1.24a224.48,224.48,0,0,1-51.91,7.62c-28.22.65-38.56-6.38-45.09-12S0,79.41,5.47,69.66Z"/><path class="cls-3" d="M124.84,56.2a5,5,0,0,0-1.9,1.35,15.1,15.1,0,0,0-2.43,3.37c-.27.58-.56,1.18-.63,1.29a1,1,0,0,0-.13.39A11.36,11.36,0,0,1,118,65.83a7.85,7.85,0,0,1-3.42,1.24,1.12,1.12,0,0,0-.45.12c-.12.07-.56.28-1,.46a7.4,7.4,0,0,0-3.37,4.11,7,7,0,0,0-.41,2.7,17.43,17.43,0,0,0,.09,2.77c.08.54.2,1.44.25,2s.14,1.05.15,1.13c.13.4-.23.89-1.11,1.54-2,1.49-2.84,2.86-3.25,5.69a3.14,3.14,0,0,0,0,1.59,2.54,2.54,0,0,1,.16.69,16.19,16.19,0,0,0,1,2.83,4.84,4.84,0,0,1,.62,2c0,.45-.11.63-.62,1.22a4.2,4.2,0,0,0-1.23,3.24,3.85,3.85,0,0,0,.13,1.26.4.4,0,0,1,.14.34,1.45,1.45,0,0,0,.11.49c.07.12.23.47.35.76.24.58,1,1.51,1.3,1.51a.87.87,0,0,0,.4-.2,1.12,1.12,0,0,1,.55-.2A1.84,1.84,0,0,0,109,103c.17-.06.66-.22,1.1-.34a5.93,5.93,0,0,0,1-.34,1.3,1.3,0,0,1,.49-.12.41.41,0,0,0,.33-.12,1.07,1.07,0,0,1,.46-.19,8.13,8.13,0,0,0,1-.36l.9-.39c.49-.2,3.17-1.5,3.23-1.57a3.49,3.49,0,0,1,.53-.33l.72-.39a38.6,38.6,0,0,0,3.31-2.38,49.27,49.27,0,0,0,4.33-4.34,34,34,0,0,0,4.5-7.55c.13-.37.29-.78.34-.93a7.92,7.92,0,0,0,.33-1c.12-.39.28-.85.34-1A2,2,0,0,0,132,81a.55.55,0,0,1,.12-.38,1.21,1.21,0,0,0,.2-.57c0-.27.17-1.16.3-2a33.08,33.08,0,0,0,.23-5.08,27.55,27.55,0,0,0-.83-8.12c-.07-.29-.2-.83-.28-1.18s-.2-.78-.25-.93-.28-.76-.48-1.38a14.91,14.91,0,0,0-.6-1.68,4.82,4.82,0,0,1-.26-.66,17.09,17.09,0,0,0-1.28-2.52c-.54-.56-2.93-.77-4-.34Z"/><path class="cls-3" d="M6.61,59.76c-.75.39-3.51,5.46-4.39,8-.23.68-.33,1-.57,1.51a14.2,14.2,0,0,0-.5,1.85,3.25,3.25,0,0,1-.19.6A30.46,30.46,0,0,0,.7,85.84c.07.28.2.75.28,1,.15.6.47,1.58.64,2A24.06,24.06,0,0,0,2.8,91.62c.17.33.43.8.58,1.06a25.77,25.77,0,0,0,7.92,8.5A33.78,33.78,0,0,0,16,103.66c.18.08.42.18.54.25s.29,0,.45-.15.21-.29,0-.79c-.37-.92-.21-2,.65-4.29a6.88,6.88,0,0,0,.73-3.23,5.54,5.54,0,0,0-1.18-3.65c-.84-.92-1.07-1.32-1.07-1.92a7.8,7.8,0,0,1,.54-2.33c.28-.69.37-.93.69-1.8a9.33,9.33,0,0,0,.8-3.17,7.32,7.32,0,0,0-.67-4,5.65,5.65,0,0,0-1.74-2.18c-.53-.47-.57-.55-.5-1.05a6.61,6.61,0,0,1,.5-2,.88.88,0,0,0,.12-.46.82.82,0,0,1,.14-.49,8.36,8.36,0,0,0,0-3.23.53.53,0,0,1-.16-.35,3.44,3.44,0,0,0-.49-.91,11.12,11.12,0,0,0-2.68-2.48c-.4-.29-1.56-1.32-2.59-2.28a12.47,12.47,0,0,1-2.39-2.63,3.47,3.47,0,0,0-.63-.91,1.55,1.55,0,0,0-.49.16Z"/><path class="cls-4" d="M36.89,108.44a5,5,0,0,0-1.4,3.54c0,2.28,0,3.59,4.17,5.93s13.9-.65,15.59-1.19,2.4-.81,2.43-1S45.64,113.11,36.89,108.44Z"/><path class="cls-5" d="M35.85,114.58c.46,1,1.49,2,3.81,3.33,2.83,1.61,8.31.7,12-.2.14-1-.23-1.89-1.39-1.87-2.58,0-3.58-1.17-9.23-1.92C38.23,113.54,36.69,114,35.85,114.58Z"/><path class="cls-4" d="M82.65,107.23s4.33-1.22,6.4-.51a3.57,3.57,0,0,1,2.39,3.76,8.86,8.86,0,0,1-3.72,6.41c-2.89,2-7.91,1.47-7.91,1.47s-3.63,0-4.69-.7-.93-1.27-.82-1.86-.55-1.78-.48-2.42a32.54,32.54,0,0,1,.79-4.08,3.59,3.59,0,0,1,.85-1.23A21.45,21.45,0,0,0,82.65,107.23Z"/><path class="cls-5" d="M82.65,107.23s4.33-1.22,6.4-.51a3.57,3.57,0,0,1,2.39,3.76,8.86,8.86,0,0,1-3.72,6.41c-2.08,1.4-5.26,1.55-6.88,1.52,0,0,5.11-.75,7.08-4.67s.44-5.57.44-5.57-5.34.66-8,1.15a8,8,0,0,1-5.11-1.09l.53-.14A22.14,22.14,0,0,0,82.65,107.23Z"/><path class="cls-6" d="M28.61,93.94s1.35-1.44,4.6-1.4,12.92,2,12.92,2,13,1.15,17.07.15,16.28-5.6,16.28-5.6a44.5,44.5,0,0,1,10.26-1.9c4.53-.09,7.25,0,9,1.78s1.24,5.27-.59,7.17-9.49,6.71-9.49,6.71l-7.78,4.38-4.7.83a4.14,4.14,0,0,0-1.64.7,3.94,3.94,0,0,1-1.66.09,25.07,25.07,0,0,1-.83,4.15c-.6,1.87-1.28,4-1.28,4s-7.48-.54-11.6-1.21a101.79,101.79,0,0,1-14.92-3.84,61.47,61.47,0,0,1-13.86-7.63C26.88,101.65,24.3,97.08,28.61,93.94Z"/><path class="cls-7" d="M32,92.61a9.75,9.75,0,0,1,1.26-.07c3.26,0,12.92,2,12.92,2s13,1.15,17.07.15,16.28-5.6,16.28-5.6a44.5,44.5,0,0,1,10.26-1.9c1.7,0,3.15,0,4.38.06a9.9,9.9,0,0,1-2.71.61c-3.84.33-10.24,4.1-10.24,4.1l-13.5,6.84a73.12,73.12,0,0,1-11.73,1.32,31.93,31.93,0,0,1-14-3.71c-1.55-1-9.71-3.34-9.71-3.34Z"/><path class="cls-7" d="M28.61,93.94a3.15,3.15,0,0,1,.71-.52,3.44,3.44,0,0,0-.52,4.18,26.2,26.2,0,0,0,8.23,9c4.17,2.67,7.41,3.19,9.38,4.17s3.6,1,5.71,1.92,13.8,3.1,15.45,3.68a.75.75,0,0,1,.42.38c-2.55-.22-6.29-.57-8.79-1a101.79,101.79,0,0,1-14.92-3.84,61.47,61.47,0,0,1-13.86-7.63c-3.54-2.65-6.12-7.22-1.81-10.36Zm.73-.53,0,0h0Z"/><path class="cls-8" d="M97.62,88.14a5.27,5.27,0,0,1,1.15.85c1.78,1.76,1.24,5.27-.59,7.17s-9.49,6.71-9.49,6.71l-7.78,4.38-4.7.83a4.14,4.14,0,0,0-1.64.7,3.94,3.94,0,0,1-1.66.09,25.07,25.07,0,0,1-.83,4.15l-.31.94a20.07,20.07,0,0,0-3.06-2.72,34.37,34.37,0,0,0-7-3.61c-3.33-1.31-6-5.45-6-5.45l13.49,5.66S93.72,96.69,96.06,93.17A9.47,9.47,0,0,0,97.62,88.14Z"/><path class="cls-9" d="M57.29,49.52s5-.89,7-.94,19,2,22.11,6.26,5.34,13.26,6.84,17.39a32.58,32.58,0,0,1,2.2,9.82c.06,2.3-1.21,5-3.58,5s-6.19-2.53-8-5a52.7,52.7,0,0,1-3.56-5.9l-.94-2.5s-2.4,5.57-3.52,8.8a30.53,30.53,0,0,0-1,8.3L65.6,94.16,61.92,95s-2.62-3.68-3.65-4.13A5.27,5.27,0,0,0,53,92.05a29,29,0,0,1-3,2.46,38.45,38.45,0,0,1-6.78-.21C41.41,93.85,35,92.63,35,92.63l-1.38-.16-2.1-2s-2.77-3-1.36-8.2a74.31,74.31,0,0,1,8.53-18.33c3.11-4.52,6.94-9.35,10.8-11.46A32.63,32.63,0,0,1,57.29,49.52Z"/><path class="cls-10" d="M62.22,57.73s-.94,3.28.58,5.62,3.9,3.41,5.12,2.77,3.35-1,4.31-2.39.38-4.21.49-4.15S62.22,57.73,62.22,57.73Z"/><path class="cls-11" d="M79.67,74.47l-.3-.79s-2.4,5.57-3.52,8.8a30.53,30.53,0,0,0-1,8.3L65.6,94.16,61.92,95s-2.62-3.68-3.65-4.13a4,4,0,0,0-1.3-.26,2.78,2.78,0,0,0-.14-.35c-.49-1-3.89-2.93-3.89-2.93l-7.27-3.68L50,69l1.3-2s1.16,5,2.76,5.69a10.84,10.84,0,0,0,4.07.47s2.11,3.49,3.68,3.79,3.07-1.3,3.07-1.3.08.77,2.51,2,2.35,2.18,4.92,1.2,6.83-7.61,6.47-7.5.71.71.91,3.08ZM56.1,76.64a31.72,31.72,0,0,0,4.36,6.68,15.25,15.25,0,0,0,5.74,4,9.18,9.18,0,0,0,2.72.89,11.82,11.82,0,0,0,2.84-1.26A92,92,0,0,1,60.62,79.1C56.59,75.51,56,75.14,56.1,76.64Z"/><path class="cls-11" d="M57.29,49.52s5-.89,7-.94a30.93,30.93,0,0,1,3.24.29l-.14,1.75a43.26,43.26,0,0,0-7.68.38,43.46,43.46,0,0,0-5.11,1.26,8.45,8.45,0,0,0-3.25,2c-.18.36-2.75,1.48-3.55,2.33s-5.93,6.09-7.2,8.62-3.23,5.91-3.84,7.22-3,6.1-3.33,7.83-1.13,4.5-.73,5.34,2.21,3.45,4.55,3.68,3.28,1.27,4.27,1.41,5.83,1,6.79.75,3,1.26,4,1.3A26.2,26.2,0,0,1,50,94.51a38.45,38.45,0,0,1-6.78-.21C41.41,93.85,35,92.63,35,92.63l-1.38-.16-2.1-2s-2.77-3-1.36-8.2a74.31,74.31,0,0,1,8.53-18.33c3.11-4.52,6.94-9.35,10.8-11.46A32.63,32.63,0,0,1,57.29,49.52Z"/><path class="cls-10" d="M85.25,53.77a5.31,5.31,0,0,1,1.13,1.07c3.07,4.22,5.34,13.26,6.84,17.39a32.58,32.58,0,0,1,2.2,9.82c.06,2.3-1.21,5-3.58,5A6.66,6.66,0,0,1,89,86.27c2.94-.08,3-3.63,2.26-6.21S88.51,75.61,88,73.22s-1.82-2.77-2.9-5.2a59.49,59.49,0,0,0-2.88-5.4,9.87,9.87,0,0,1-.15-1.54c-.09-1-1.8-1.75-1.8-1.75A19.76,19.76,0,0,0,82.63,58c0-.12.66-1.55.66-1.64S84.48,54.76,85.25,53.77Z"/><path class="cls-12" d="M63.22,42.85s-.82.26-.84,2.21a5.4,5.4,0,0,0,1.69,3.53c.27.4-1.19,2-1.67,4.83s.22,7.44,2.65,8.61a6.15,6.15,0,0,0,6.66-1.31,9.08,9.08,0,0,0,1.57-2.94,14.09,14.09,0,0,0,2.36,0c1-.11,1.41-.21,1.41-.21a5.83,5.83,0,0,0-.31,2.67,4.31,4.31,0,0,0,.49,1.45s1.81-1.59,3-2.41A13.12,13.12,0,0,1,83,58a14.9,14.9,0,0,1,1.41-3.16A10.78,10.78,0,0,0,85.74,52c0-.14.27-.49-.35-1.62a13.63,13.63,0,0,0-1.46-2.08l2.73-4s2.58-6.59-7-10S66,37.44,63.22,42.85Z"/><path class="cls-13" d="M64.1,48.78v0h0l0,.06h0v0h0v0h0v0h0l0,0h0v0h0v0h0v.09h0l0,0h0v.07l0,0h0v0h0v0h0l0,0h0l0,0h0v.06h0l0,0h0l0,0v0l0,0h0l0,0h0l0,0v0l0,0,0,0v0l0,0v0l0,0h0l0,0v0l0,0,0,0h0l0,.05h0l0,0,0,0v0l0,.06h0l0,.05v0l0,0,0,0h0l0,.06h0l0,0v.06a10.94,10.94,0,0,0-.76,2.57c0,.26-.08.54-.11.83a11.33,11.33,0,0,1,4.1,4.44A5.94,5.94,0,0,1,67,62.51a6.25,6.25,0,0,0,4.69-1.79A8.61,8.61,0,0,0,73,58.45v0h0v0h0v0l0,0h0l0-.07v0h0v0h0v0h0v0h0v0h0v0h0v0l-1.72-1.11.2-.64s3.41.73,5.43-.79c1.61-1.23,2.43-3.35,3-4.36a1.28,1.28,0,0,1-.41-.12.94.94,0,0,1-.27-1.65c.2-.15,1,.18,1.39.32a2.63,2.63,0,0,1,.59-1.55l.37-.31A7.28,7.28,0,0,0,79,46.59a1.71,1.71,0,0,1-.29.76L77.3,50.76A4,4,0,0,1,76,51c-.67,0-1.12-.21-1-.82s1.16-.67,1.46-.94a13.1,13.1,0,0,0,1.07-2.42A3.8,3.8,0,0,1,78,45.9c0-1-.34-2.48-1.79-2.52-2.12-.05,2.16-1.54,2.16-1.54l5,2.81a9.32,9.32,0,0,1,3.2-.52l-.22.6.33-.47a6.66,6.66,0,0,0-1.17-6.2,14.54,14.54,0,0,0-6.9-3.27c-4.16-.67-9.12,1.35-12.25,3a31.24,31.24,0,0,0-3,4.76A19.48,19.48,0,0,1,65,45.42c.52,1.41.68,3.47.28,3.64a3.56,3.56,0,0,1-1.15-.28Zm12.6,8.9a35.24,35.24,0,0,0,2.68-2.48l3.87-5.93.75-.9a13.24,13.24,0,0,1,1.07,1.45l-.81-.17a3,3,0,0,1-1,3c-1.35,1.18-3.09,3.1-2.31,6.24a7.71,7.71,0,0,0-.72.44c-1.22.82-3,2.41-3,2.41a4.31,4.31,0,0,1-.49-1.45,5.83,5.83,0,0,1,.31-2.67l-.35.06ZM74.56,48c.62.14.67,1.5-.68,1.47s-3-1-2-1.52A4.07,4.07,0,0,1,74.56,48Z"/><path class="cls-14" d="M64.71,42.3s1-.15,1.3,1.35a7.7,7.7,0,0,0,1.28,2.72s.16-2.44,1.34-2.85a6.52,6.52,0,0,1,1.74-.42A1.91,1.91,0,0,0,72,41.51c.31-1.49.17-2.45.93-2.46a9.57,9.57,0,0,1,3.86,1.45c.91.67,3.48,3.45,5.48,4.17a6.47,6.47,0,0,0,3.6.28,34.65,34.65,0,0,0,2.86-2.22C91,40.85,91,40.59,91.55,39a6.72,6.72,0,0,0,0-3.42l-.74-.67s-4-.25-6.34-2.33-7.08-4.67-11.22-4.32a7.29,7.29,0,0,0-5.79,3.78,7.36,7.36,0,0,0-5,4.33,12.1,12.1,0,0,0,0,7.48C62.58,44.29,63.43,42.27,64.71,42.3Z"/><path class="cls-15" d="M91.45,39.31l.1-.29a6.72,6.72,0,0,0,0-3.42l-.74-.67s-4-.25-6.34-2.33-7.08-4.67-11.22-4.32a7.19,7.19,0,0,0-4.88,2.47c-.32.47-.51.77-.51.77a1.84,1.84,0,0,0,1.15,2c1.45.76,3,2.94,3.93,2.94s4.13-.23,6.38.66a22.29,22.29,0,0,0,7,1.31c.75-.14,0,1.13-.93,1.41-.74.23,3.89,1.44,6.13-.54Zm-27.74-.19a5.19,5.19,0,0,1,1.92-2.95,10,10,0,0,1,2-1.13c.27-.14-1,2.32-.92,2.72s2.25,0,2.48-.15-2.48,2.26-3.09,2.73-.93-1.71-1.29-1.38-.75,1.08-1,1S63.71,39.12,63.71,39.12Z"/><path class="cls-13" d="M57.06,90.5a5.73,5.73,0,0,0-3.31,1,38.45,38.45,0,0,0-3.44,3.11s.77,5.67.8,6.07.45,3.1,1.21,3.17a.84.84,0,0,0,.94-.55s.78,1,1.43,1,.71-.35.71-.35a1.35,1.35,0,0,0,1.48.77,1.85,1.85,0,0,0,1.45-1.26s.31.19.8-.6A19.49,19.49,0,0,0,60.31,100s1.45.36,1.78-.18S62,98.13,62,98.13a21.24,21.24,0,0,0-.55-3.39C61.14,94.14,58.38,90.63,57.06,90.5Z"/><path class="cls-12" d="M57.06,90.5a5.73,5.73,0,0,0-3.31,1c-.65.49-1.41,1.16-2,1.75.18.25,2.09,2.81,4.3,3.29s2.45.5,2.45.5l.23,6.37a1.78,1.78,0,0,0,.45-.52A19.49,19.49,0,0,0,60.31,100s1.45.36,1.78-.18S62,98.13,62,98.13a21.24,21.24,0,0,0-.55-3.39C61.14,94.14,58.38,90.63,57.06,90.5Z"/><path class="cls-3" d="M72,28a5,5,0,0,0-.89.25,1,1,0,0,1-.42.12,5.86,5.86,0,0,0-2.34,1.45,5.65,5.65,0,0,0-1,1.41c-.28.62-.36.69-.91.82A6.94,6.94,0,0,0,62.51,35c-1.49,2.48-1.81,6.65-.69,8.86A4,4,0,0,1,61.94,45a3.65,3.65,0,0,0,1,2.81,4.37,4.37,0,0,1,.65.77,10.56,10.56,0,0,1-.75,1.7,8.74,8.74,0,0,0-1.16,4.35c-.14,2.31.72,5.31,1.87,6.59A5.5,5.5,0,0,0,69,62.66a4.84,4.84,0,0,0,2.68-1.36,7.71,7.71,0,0,0,1.61-2.81c0-.22.15-.25,1.62-.29.89,0,1.63,0,1.65,0a3.55,3.55,0,0,1-.17.66,5.16,5.16,0,0,0-.2,1.1,6.2,6.2,0,0,0,.58,2s0,.23-.13.45a.82.82,0,0,0-.12.5,3.12,3.12,0,0,1,.21.83c.19,1,.51,2.57.65,3.19.05.29.17.91.25,1.39a26.59,26.59,0,0,0,1,4.06c.23.65.28,1,.2,1.13a15.47,15.47,0,0,0-.74,1.66c-.34.82-.73,1.75-.87,2.07a3.51,3.51,0,0,0-.26.63s-.19.47-.41,1A9.92,9.92,0,0,0,76.1,80a1.1,1.1,0,0,1-.18.45.5.5,0,0,0-.12.38.58.58,0,0,1-.12.39,1.23,1.23,0,0,0-.2.5c0,.23-.17.76-.29,1.16a18.76,18.76,0,0,0-.7,5.75,5.24,5.24,0,0,1-.17,2,6.44,6.44,0,0,1-1,.35,9.2,9.2,0,0,0-1.06.35c-.14.06-.74.26-1.32.46s-1.17.39-1.32.46c-.49.24-4.33,1.45-4.57,1.45a.37.37,0,0,0-.3.12.86.86,0,0,1-.5.18,11.87,11.87,0,0,0-1.16.3c-1.1.34-1.32.33-1.57-.14a11.07,11.07,0,0,0-1-1.47l-.76-.94a7.88,7.88,0,0,0-1.16-1.16l-1.42-1.05c-.48-.37-1.33-.92-1.87-1.24s-1.23-.72-1.52-.91A60.51,60.51,0,0,0,47.24,84c.26-1.33,1-5.41,1.65-8.18.75-3.35,2.17-7.86,2.17-7.86h0c.41-.74.4-1,0-1s-.71.57-1.67,2.31c-.12.21-.6,1-1,1.78l-1.17,2c-.18.33-.43.74-.55.92-.34.51-1.18,2-2.28,4.1a29,29,0,0,0-1.81,3.64c0,.35-.33.45-1.1.29-1.55-.33-4,.54-5.67,2-.36.31-.49.53-.49.81s.3.55.42.28a7.74,7.74,0,0,1,2.1-1.47,5.64,5.64,0,0,1,3.87-.67,10.21,10.21,0,0,1,1.2.26,5.86,5.86,0,0,0,.79.27,17.15,17.15,0,0,1,1.83.72,3.8,3.8,0,0,0,.53.2,53.24,53.24,0,0,1,4.9,2.36l1.41.8A1.62,1.62,0,0,1,53,88c0,.07-.31.28-.75.46A6.66,6.66,0,0,0,49,90.92c-.27.5.11.44.73-.11A7.22,7.22,0,0,1,54,89a2,2,0,0,1,1.41.41,1.88,1.88,0,0,1,.62.53s-.24.17-.53.25a10.47,10.47,0,0,0-2.9,1.56A20.23,20.23,0,0,0,51,93.22a5.08,5.08,0,0,1-1.38,1.12c-.78.2-6.21-.38-8.64-.94-.54-.12-1.25-.28-1.58-.34a13.8,13.8,0,0,0-1.58-.24,6.88,6.88,0,0,1-1.32-.24,9.39,9.39,0,0,0-3-.43,9.8,9.8,0,0,0-4.56,1c-1.13.62-2.77,2.48-2.77,3.16,0,.15-.05.32-.13.36A3.56,3.56,0,0,0,25.91,98a3.89,3.89,0,0,0,.55,2.39c.09.14.21.38.29.52a13.61,13.61,0,0,0,1.82,2.41A38.19,38.19,0,0,0,35.08,108l1.15.62c.05,0-.15.4-.44.81a3.47,3.47,0,0,0-.51,1,.37.37,0,0,1-.13.32,8,8,0,0,0,0,2.73,8.92,8.92,0,0,0,1.15,2.29A7.19,7.19,0,0,0,39,118.16a5.15,5.15,0,0,0,1.06.38,1.34,1.34,0,0,1,.43.12c1,.52,3.91.77,6.21.56a18.08,18.08,0,0,0,2.07-.28c.22-.07,1.08-.26,1.91-.46a38.3,38.3,0,0,0,4.55-1.39,4.22,4.22,0,0,1,.6-.2,11.38,11.38,0,0,0,1.16-.48,1.93,1.93,0,0,1,1.12-.31,33.46,33.46,0,0,0,3.86.53,61.54,61.54,0,0,0,6.81.55c2.31.07,2.32.07,2.52-.25s.27-.3,1.24-.26,1,.07,1.24.44.67.73,2,1.17a16.93,16.93,0,0,0,4.88.49c2.76,0,3.77,0,5-.5,2.54-.91,4.94-3.18,5.55-5.23a10.87,10.87,0,0,1,.34-1.07,7.55,7.55,0,0,0,0-2.76,3.37,3.37,0,0,0-1.71-2.58,4.57,4.57,0,0,0-2.71-.57,6.67,6.67,0,0,0-2.35.36,1.34,1.34,0,0,1-.61.11,4.48,4.48,0,0,0-.85.11c-1,.28-.61,0,.79-.78s2.66-1.44,3.73-2.12a4.34,4.34,0,0,1,.56-.33.66.66,0,0,0,.26-.18c.07-.08,2.21-1.37,3.47-2.09.83-.48,3-1.92,3.51-2.35l1.09-.9,1.17-1a6.69,6.69,0,0,0,1.11-1.32,6,6,0,0,0,1.23-3.26,4.07,4.07,0,0,0-.85-2.93,5.2,5.2,0,0,0-4-2.65,5.44,5.44,0,0,1-1-.2s.11-.28.33-.51a5.26,5.26,0,0,0,1-1.57,16.15,16.15,0,0,0,0-3.87,2.33,2.33,0,0,1-.18-.79,34.94,34.94,0,0,0-.88-4.13,17.11,17.11,0,0,0-.54-1.94c0-.15-.17-.51-.25-.8a30.23,30.23,0,0,0-1-3,3,3,0,0,1-.18-.6,5.53,5.53,0,0,0-.2-.66A9.71,9.71,0,0,1,92,67.14c-.14-.37-.28-.78-.35-.93s-.26-.76-.46-1.38a20.2,20.2,0,0,0-.74-2.11c-.1-.26-.28-.68-.37-.93s-.21-.58-.26-.72l-.33-.86c-.13-.33-.28-.71-.33-.86s-.19-.48-.29-.73a19.05,19.05,0,0,0-2.58-4.4c-.46-.55-.54-1-.29-1.44a3.5,3.5,0,0,0,0-2.1,11.64,11.64,0,0,0-1.34-2.11l-.29-.37.29-.31a1.17,1.17,0,0,0,.29-.41.72.72,0,0,1,.14-.25,20,20,0,0,0,1.18-1.63,2.12,2.12,0,0,1,.86-.77,7.91,7.91,0,0,0,1.53-1.28,10.67,10.67,0,0,1,1.1-1,2.94,2.94,0,0,0,.62-.49A7.31,7.31,0,0,0,92,36.32a3.15,3.15,0,0,0-.32-1A.65.65,0,0,1,91.5,35c0-.13,0-.25-.09-.25l-1.82-.29A9.93,9.93,0,0,1,87.87,34c-.29-.12-1.55-.92-2.81-1.77-4.62-3.14-5.65-3.64-8.58-4.23A19.4,19.4,0,0,0,72,28Zm-2.5,29.5s1.79,1.26,2.44,1.78a4.66,4.66,0,0,1-3.72,2.48,4.32,4.32,0,0,1-4-1.21c-1.36-1.51-2-5.14-1.44-7.72a16.11,16.11,0,0,1,1.64-3.67,1.84,1.84,0,0,1,.78.14c.72.23,1.06.19,1.06-.14,0-.13-.38-.39-1-.69A3.77,3.77,0,0,1,62.86,46a2.89,2.89,0,0,1,.6-2.64c.72-.72,1.63-.75,2,0,.26.52.5.41.55-.25,0-.48,0-.58-.38-.85a2.14,2.14,0,0,0-2.29.08,1.89,1.89,0,0,0-.69.55c-.13.34-.25.19-.41-.49-.29-1.24-.12-4.64.26-5.06A.69.69,0,0,0,62.6,37c0-.84,1.77-3,2.9-3.5a4.58,4.58,0,0,1,1.57-.58c.32,0,.94-.49.94-.74a4.81,4.81,0,0,1,1.48-2A5.87,5.87,0,0,1,72.7,29a7.15,7.15,0,0,1,2.79-.06h0a15.15,15.15,0,0,1,4.12,1.15,46.75,46.75,0,0,1,5.86,3.77,6.83,6.83,0,0,0,3.28,1.49c1.21.13,1.3.23.55.6-.57.29-.81.31-2.32.31s-1.69,0-1.65.27,1.09.62,2.41.55A4.55,4.55,0,0,0,90.62,36l.58-.45.17.51a2.13,2.13,0,0,1,.09.88c0,.2-.14.78-.22,1.29A6.7,6.7,0,0,1,90,41.15a4.52,4.52,0,0,1-1,.75,3.91,3.91,0,0,1-2.87.2c-.78-.17-1.39,0-1.31.38s.65.39,2.52.66c.28,0,.47.13.46.2a4,4,0,0,1-.9.61,3.08,3.08,0,0,1-2.17.49,5.92,5.92,0,0,1-1.79-.19,11.42,11.42,0,0,1-2.25-1.09c-1-.93-3-2.64-3.43-3A13.93,13.93,0,0,0,74.81,39a6,6,0,0,0-1.45-.23c-1.22-.08-1.31,0-1.43.82a6.6,6.6,0,0,1-.5,2.15c-.33.73-.85,1-2,1.14a2.17,2.17,0,0,0-1.36.47,3.35,3.35,0,0,0-1.07,2.22c-.1.82,0,1.08.3,1.08s.28-.17.4-.7A3.57,3.57,0,0,1,68.67,44a5.15,5.15,0,0,1,1.21-.29,4.65,4.65,0,0,0,1.38-.41,3.39,3.39,0,0,0,1.37-3.06c0-.63.05-.89.17-.89a10.5,10.5,0,0,1,2.44.73,5,5,0,0,0,.78.33,17.34,17.34,0,0,1,2.76,2.24,16.15,16.15,0,0,0,2,1.59,7.36,7.36,0,0,1,2.12,2,.63.63,0,0,0,.39.35c.21,0,.24,0,.15-.46a2.23,2.23,0,0,0-.24-.69c-.13-.16-.05-.17.57-.11a9.55,9.55,0,0,0,1.16.1c.22,0,.42,0,.42.13a11.66,11.66,0,0,1-.87,1.32c-.48.67-1.54,2.29-2.39,3.6-.64,1-1.19,1.88-1.66,2.59l-.25.37c-1.74,2.61-2.45,3.17-3.73,3.59-1.46.47-2.21.38-4-.46a2.28,2.28,0,0,0-2-.28c-.74.31-1.27,1.08-.85,1.24ZM43,96.32l-.45-.15c-1-.33-1.19-.35-1.36-.17s-.19.24.09.49a1,1,0,0,0,.49.28c.17,0,.33,0,1.5.58a3.39,3.39,0,0,0,.56.21,6.92,6.92,0,0,1,.65.25c.3.14.91.38,1.34.54s1,.37,1.19.46.66.27,1,.39a18.06,18.06,0,0,1,2.19.88c.59.26.66.38.83,1.78A2.88,2.88,0,0,0,52,104a1.19,1.19,0,0,0,1.23-.18c.06-.1.18,0,.41.19a2.32,2.32,0,0,0,.58.5c.34.19.91.19,1,0s.31.06.61.33a1.84,1.84,0,0,0,.78.47,1.92,1.92,0,0,0,1.1-.62,3,3,0,0,1,1.33-.7,24,24,0,0,1,2.35,1c2.49,1.2,3.52,1.67,4.26,2s.9.33,1.45.57a18.61,18.61,0,0,0,3.5,1,9.79,9.79,0,0,1,1.45.32c.25.13.33,1,.15,1.59-.08.25-.24.87-.36,1.39a10.67,10.67,0,0,1-.32,1.25c0,.19-.19.69-.33,1.12a5.06,5.06,0,0,1-.34,1,1.31,1.31,0,0,0-.12.41,2.27,2.27,0,0,1-.16.54c-.15.34-.21.36-.76.27-.33,0-1.19-.14-1.92-.19-2.19-.17-4.46-.38-4.94-.47-.26,0-.94-.14-1.52-.2A63.06,63.06,0,0,1,54,114.37c-1.32-.3-1.64-.3-1.69,0s.32.61.7.62c.67,0-.62.38-2.41.63-.77.12-1.1.33-.86.57s3.75-.22,4.33-.7c.17-.14.83-.13.92,0a1.05,1.05,0,0,0,.57.14l.49,0-.66.29c-.36.17-1.14.46-1.72.66l-1.32.46a10.49,10.49,0,0,1-2,.54,21.07,21.07,0,0,1-6.73.65,16.49,16.49,0,0,1-1.91-.25l-1.13-.33a5.5,5.5,0,0,1-3.52-2.39,5.4,5.4,0,0,1-1.16-3.22,3.43,3.43,0,0,1,.87-2.48l.44-.43.47.23c.53.25.53.22.25,1.2a4.47,4.47,0,0,0,.09,2.63,5.16,5.16,0,0,0,3.49,3.1c.87.19,1.17.18,1.23,0s-.22-.32-.86-.6a5.64,5.64,0,0,1-2-1.2,3.38,3.38,0,0,1-1.15-2.81c-.07-1.56,0-1.69.89-1.29a10.75,10.75,0,0,0,1.51.63,4.76,4.76,0,0,1,.65.25c.3.13.76.32,1,.41l.93.37c.7.29.93.37,1.61.62s.8.49.92,1.37a.54.54,0,0,0,.21.39c.13,0,.16-.19.13-1,0-1.09,0-1-.89-1.42l-2.49-1.1a4.19,4.19,0,0,0-.85-.31.68.68,0,0,1-.31-.11,2,2,0,0,0-.58-.29A30.07,30.07,0,0,1,36.93,108c-.21-.14-.81-.45-1.32-.73A35.71,35.71,0,0,1,32,104.91c-.09-.09-.55-.46-1-.82-1.55-1.17-3.16-2.89-3.16-3.38a.11.11,0,0,0-.11-.12s-.17-.19-.28-.43-.26-.59-.35-.81A5.23,5.23,0,0,1,27,96.93c.05-.12.23-.47.36-.76a6.07,6.07,0,0,1,3.9-2.83,3.55,3.55,0,0,0,.76-.22,33.44,33.44,0,0,1,4.75.19h0c.54.08,1.07.18,1.19.22a4.37,4.37,0,0,0,.87.21L40,94a48.43,48.43,0,0,0,7.59,1.18,13.35,13.35,0,0,0,2,.08l.49-.08v.72a3.76,3.76,0,0,0,.12,1,5.26,5.26,0,0,1,.17.92L43,96.32Zm19.52,2.57-.13-.61a4.92,4.92,0,0,1-.1-2.67,7,7,0,0,1,1.49-.51c2.09-.54,2.7-.71,4.94-1.45l2-.7.92-.34c.37-.12.78-.26.92-.33s.77-.26,1.39-.45l1.39-.47a8.45,8.45,0,0,1,.92-.33c.37-.14.78-.28.92-.35.4-.16,3.73-1.24,4.62-1.5.44-.12.91-.28,1.06-.33s.68-.2,1.19-.33l1.38-.33a14.08,14.08,0,0,1,3.43-.49c.4,0,.58,0,.4,0h0a9.37,9.37,0,0,0-1.39.44l-1,.33a66.76,66.76,0,0,0-7,3.52l-.44.25c-3.14,1.32-7.47,3.12-10.14,4.23a48.72,48.72,0,0,1-6.84,2.37Zm-1.58,4.28a.67.67,0,0,0,.46.2,32.52,32.52,0,0,0,3.51-1.63,94.6,94.6,0,0,0,9.66-5.49c1.44-.87,2.64-1.59,2.66-1.59s.43-.22.89-.48c3.1-1.79,5.33-3,7.06-3.87a26.73,26.73,0,0,1,2.74-1.2,16.46,16.46,0,0,1,6.21-.86l3,0,.74.77a4.49,4.49,0,0,1,1.52,3.15A5.53,5.53,0,0,1,97.58,96c-1.06,1-2.47,2.2-3.32,2.83s-4,2.68-4.16,2.68-.76.43-1.61,1A66.43,66.43,0,0,1,82,106l-2.68,1.33a16.07,16.07,0,0,1-3.54.33c-.37-.07-1.17.33-1.17.59,0,.09-.17.12-.49.07L73,108.17a4.3,4.3,0,0,1-.86-.18,3.73,3.73,0,0,0-.86-.19,22.27,22.27,0,0,1-5.78-1.87,7.73,7.73,0,0,0-.77-.32s-.68-.3-1.43-.66-1.42-.66-1.46-.66a12.58,12.58,0,0,1-1.62-.77l.64-.35ZM58.51,48.75h0c.87-.18,1.13-.18,1.32,0s.06.56-.56.65a10,10,0,0,0-1.75.47c-.15.06-.83.28-1.52.5-2.72.88-5.66,2.08-5.86,2.39,0,.06.22.4.58.74a2.82,2.82,0,0,1,.66.82c0,.09,0,.17.11.17a2.7,2.7,0,0,1,.46.77c.21.41.43.86.5,1a2.28,2.28,0,0,1,.12.8c0,.47,0,.52-.19.37a7.12,7.12,0,0,1-.5-.8c-.79-1.51-2.2-3.16-2.7-3.16S44.77,57,42.52,59.61a40.18,40.18,0,0,0-3.15,4.13.2.2,0,0,1-.11.19,23.44,23.44,0,0,0-1.7,2.61c-.14.25-.42.76-.63,1.12-1.08,1.92-3.31,6.29-3.82,7.46-.19.48-.44,1-.54,1.26s-.3.75-.46,1.18-.33.91-.39,1.06c-.2.49-.49,1.42-.93,3a16.51,16.51,0,0,0-.53,3.55A9.35,9.35,0,0,0,31.73,90c.17.21.63.73,1,1.13s.65.8.59.84c-.53.33-2.35-1.13-3-2.37a7.4,7.4,0,0,1-.81-2.29,11,11,0,0,1,.07-4.5c.14-.69.29-1.4.33-1.59a4.12,4.12,0,0,1,.18-.59c.05-.15.2-.62.32-1.06s.29-.93.37-1.12.18-.45.24-.59c.84-2.15,1.61-3.87,2.67-6s2.64-5.09,2.88-5.44a1.28,1.28,0,0,0,.25-.42c0-.1,2.18-3.57,2.56-4.08l1.36-1.74,2-2.37a37.55,37.55,0,0,1,4.52-4.27,16.42,16.42,0,0,1,1.37-1,.66.66,0,0,0,.3-.18,19.66,19.66,0,0,1,4.57-2.09c.43-.13.91-.3,1-.35a9.2,9.2,0,0,1,1.06-.35c1.25-.35,1.7-.49,2-.6a7,7,0,0,1,.86-.23ZM78.6,110.32h0a.79.79,0,0,1,.51-.35c.15,0,.25,0,.22.09a6.83,6.83,0,0,0-.63,3.22c0,1.07,0,1.19-.22,1.15a1.07,1.07,0,0,1-.49-.56c-.23-.46-.24-.59-.09-1.45a4.77,4.77,0,0,1,.7-2.1Zm1.51-.59h0c.43-1,.62-.07.28,1.26a7.82,7.82,0,0,0-.07,1.87c.08,1.53,0,1.74-.44,1.25-.29-.32-.32-.44-.31-1.58a6.51,6.51,0,0,1,.54-2.8Zm2.14-.73h0a.63.63,0,0,1,.31-.22c.14,0,.13.76,0,.86a.5.5,0,0,0-.13.38.74.74,0,0,1-.12.41,16.09,16.09,0,0,0-.57,3.09c0,.58-.33.67-.51.18a6,6,0,0,1,.15-2.65,6.68,6.68,0,0,1,.9-2Zm1.93-.31h0a.56.56,0,0,1,.3-.18c.19,0,.21.43,0,.6a16.52,16.52,0,0,0-.75,3.85c-.07.67-.13.85-.36.91s-.66-.29-.56-.74a8.8,8.8,0,0,0,.15-1,2.43,2.43,0,0,1,.2-.76.47.47,0,0,0,.12-.36,5.86,5.86,0,0,1,.86-2.29ZM72.85,51.88h0a6.36,6.36,0,0,1,3,.25,4.53,4.53,0,0,1,1,.64l.55.61c.17.27.2.51,0,.64s-.35,0-1-.41l-.08,0A4,4,0,0,0,73,52.8a5.29,5.29,0,0,0-1.39.41c-.58.33-.59.33-.59,0s.81-1.08,1.8-1.29Zm7.71-4.45h0c.33-.37.71-.37,1,0s.26.58-.07,1-.82.51-1.12.06-.17-.68.22-1.1Zm-2.1-.62c.16-.34.32-.39.62-.21s.18.25-.1,1.2c-.07.25-.21.78-.33,1.16a3.9,3.9,0,0,1-1.14,2.11,4.13,4.13,0,0,1-2.07,0c-.17-.18.17-.55.57-.59.88-.09,1.31-.28,1.46-.65a15.44,15.44,0,0,0,.84-2.44,1.66,1.66,0,0,1,.15-.57Zm-4.58-1.05h0c.51-.52,1.26-.41,1.26.15s-.49,1.1-.82,1.1a.83.83,0,0,1-.77-.69,1,1,0,0,1,.33-.56ZM63.75,44.29h0a.47.47,0,0,1,.42-.18c.29,0,.42.11.67.55A7.41,7.41,0,0,1,65.5,47c0,.37-.38.27-.54-.14-.37-.88-.37-.89-.86-.84s-.56-.08-.18-.44a.55.55,0,0,0,0-.91.46.46,0,0,1-.18-.42Zm10.93-1.21h0a5.07,5.07,0,0,1,1.13-.15c.58,0,.79,0,1,.25.39.44.09.57-1.41.61a4.16,4.16,0,0,0-2.25.46c-.14.07-.26,0-.32,0s.53-.76.82-.76a1.34,1.34,0,0,0,.43-.12,4.62,4.62,0,0,1,.62-.25Zm10.25,7.6a2.47,2.47,0,0,1,.28,1.08c0,.58-.27,1.45-.46,1.45a.12.12,0,0,0-.11.13,4.82,4.82,0,0,1-.5,1A12.41,12.41,0,0,0,82.86,57c-.24.74-.41,1-.67,1-.6,0-3.25,1.61-4.31,2.6-.46.45-.47.47-.62.2a2.73,2.73,0,0,1,0-1.63l.27-.84A3.58,3.58,0,0,1,78.42,57c.41-.4,1-1,1.28-1.39A20.92,20.92,0,0,0,81.47,53a7.65,7.65,0,0,1,.46-.8,6.23,6.23,0,0,0,.47-.79s.33-.58.72-1.2l.74-1.13.4.56c.22.3.51.76.67,1Zm1.16,4.67a.65.65,0,0,0,.17.26c.08.11.23.31.31.44l.47.87c.19.33.41.71.48.86a24.3,24.3,0,0,1,1,2.43c.19.47.4,1,.49,1.25.17.38.53,1.31.74,1.85,0,.14.16.41.24.59s.23.66.34,1.06.28.84.34,1c.31.7,1.45,3.89,1.45,4.08a.36.36,0,0,0,.14.27.53.53,0,0,1,.13.39.67.67,0,0,0,.12.41,1.75,1.75,0,0,1,.19.59c0,.25,0,.37,0,.26a1,1,0,0,0-.16-.26,1.81,1.81,0,0,1-.22-.33c-.08-.14-.31-.57-.52-.92s-.54-1-.76-1.39c-.42-.79-2.07-3.46-2.21-3.56a5.18,5.18,0,0,1-.37-.54,10.36,10.36,0,0,0-.68-1A13.57,13.57,0,0,1,86,60.89c-1.06-2-1.54-2.75-2-3-.3-.18-.35-.28-.3-.53A11.41,11.41,0,0,1,84.76,55l.47-.75.44.49a3.06,3.06,0,0,1,.42.59Zm-2,3.91c.26.41.83,1.4,1.24,2.2A21.7,21.7,0,0,0,87.48,65c.51.69,2.44,3.64,2.44,3.75a10.85,10.85,0,0,0,.51,1,38.83,38.83,0,0,1,2.64,5.56c.29.82.7,1.86.91,2.31A9.11,9.11,0,0,1,94.75,80c0,.25.11,1.24.15,2.17a5.46,5.46,0,0,1-.15,2.19,4,4,0,0,1-1.52,1.73c-.54.35-.7.37-1.82.37A5.83,5.83,0,0,1,90,86.35L89.13,86A12.41,12.41,0,0,1,86,83.53a17.49,17.49,0,0,1-3.2-4A19.86,19.86,0,0,1,80,73.47c-.08-.29-.27-.91-.41-1.38a33.45,33.45,0,0,1-1-4.23c-.07-.39-.19-1-.25-1.32s-.2-.93-.28-1.36a11,11,0,0,0-.39-1.45c-.41-1.08-.37-1.29.52-2.24a10.52,10.52,0,0,1,3.3-2.36c1.19-.59,1.28-.61,1.78-.62.35,0,.47.09.88.75ZM80.35,77.18a23.17,23.17,0,0,0,4.58,6.53,27.72,27.72,0,0,0,2.44,2.18c.5.34.93.65.95.67s-.09.16-1,.3-1.8.31-2.64.52l-1.32.33c-1.11.28-1.56.4-2.84.81-.62.2-1.24.38-1.39.42a1.81,1.81,0,0,0-.39.17,2.26,2.26,0,0,1-.6.2,3.22,3.22,0,0,0-.66.21,14.7,14.7,0,0,1-2.2.73,48.08,48.08,0,0,1,.37-5.1,32.39,32.39,0,0,1,.91-3.49c0-.15.2-.6.32-1s.29-.85.35-1,.17-.43.58-1.48c.14-.33.35-.85.48-1.14a8.92,8.92,0,0,0,.33-.89.82.82,0,0,1,.2-.43.4.4,0,0,0,.12-.3.64.64,0,0,1,.15-.38c.14-.14.2-.11.29.13s.49,1.08.94,2ZM58,91.37a11.4,11.4,0,0,1,2.76,3.06,3.52,3.52,0,0,1,.66,2.19,13.78,13.78,0,0,0,.22,1.86c.25,1.16.28,1.12-.37,1.16l-.56,0,.09-.56a5.75,5.75,0,0,0-.46-3.54c-.32-.75-.62-1.19-.82-1.19s-.09.82.24,1.62a6.06,6.06,0,0,1-.1,4.39c0,.14-.14.47-.2.72a2.88,2.88,0,0,1-.18.66c-.07.11-.18.39-.29.61s-.17,0-.17-2.57v-3h-.62l0,2.18c0,2.57-.25,3.76-.88,4.95-.28.51-.82.61-1.1.17-.17-.26-.17-.38,0-.9a10.4,10.4,0,0,0,.46-3.74c0-1.9-.15-2.72-.47-2.72-.14,0-.19.49-.23,2.4-.05,2.64-.16,3.3-.61,4.24-.26.54-.35.63-.64.59s-.47-.21-.73-.66-.38-.66-.24-1.21a23.5,23.5,0,0,0,0-5.67c-.41-.15-.48.14-.53,2.48-.07,2.72-.32,4.56-.62,4.56s-.87-1.24-1-2.64a6.11,6.11,0,0,0-.14-1.06c0-.1-.14-.55-.23-1S51,97.72,51,97.36s-.16-1.07-.2-1.57l-.07-.91,1-1a15.35,15.35,0,0,1,3.41-2.5l.66-.28a3.14,3.14,0,0,1,1-.15,1.83,1.83,0,0,1,1.28.4ZM87.4,107.26a4.88,4.88,0,0,1,1.2,2.88,8,8,0,0,1-1.32,3.72c-.66,1-.63,1.41,0,1.11s1.23-1.43,1.78-3.17a7.85,7.85,0,0,0,0-3,6.24,6.24,0,0,0-.68-1.4c-.37-.54,0-.6.92-.13a1.78,1.78,0,0,1,1.12,1.09c.35.67.37.82.33,2.11a6,6,0,0,1-.66,3.05,9.46,9.46,0,0,1-4,3.54c-.21.09-.5.22-.62.29a2.86,2.86,0,0,1-.79.2,3.17,3.17,0,0,0-.8.21,38.43,38.43,0,0,1-7.06-.09c-2-.41-2.43-.64-2.17-1.19a2.12,2.12,0,0,0-.18-1.85,3.7,3.7,0,0,1-.31-2,5.49,5.49,0,0,1,.56-2.8.45.45,0,0,0,.08-.26,2.46,2.46,0,0,1,.32-.69l.32-.5,1,0a16.39,16.39,0,0,0,3.84-.35l1.26-.27c.7-.14,2.49-.47,3.56-.66a3.39,3.39,0,0,0,.79-.18,1.49,1.49,0,0,1,.58-.08,1.29,1.29,0,0,1,.89.33Z"/><path class="cls-3" d="M69.26,36.75c-1.1.65-1.65,1-1.65,1.22s0,.2-.13.2-.13.09-.13.19c0,.28.3.26.66-.06a7.17,7.17,0,0,1,1.2-.69c.73-.34.91-.49.89-.7s-.45-.39-.84-.16Zm-2.07-2.44h0c.48-.3,1.39-.26,1.45.07a.25.25,0,0,1-.19.3A10,10,0,0,0,64.37,38c-.21.35-.53.07-.35-.29.07-.14.24-.47.37-.75a9.34,9.34,0,0,1,2.8-2.63Zm4.89-3.13a3.06,3.06,0,0,0-1.79.74c-.5.37-.6,1-.18,1a.51.51,0,0,0,.34-.12A3.66,3.66,0,0,1,72.21,32a9.94,9.94,0,0,1,2.73-.16c1,0,2,.08,2.11.11s.27,0,.29-.15c.13-.61-2.94-1-5.26-.65Z"/><path class="cls-8" d="M31.45,96.6a6.94,6.94,0,0,0-1.28,1.25,1.89,1.89,0,0,0-.57,1c0,.42.16.42.69,0l.82-.7c.9-.74,1.4-1.21,1.4-1.33a.81.81,0,0,0-.49-.5,2.22,2.22,0,0,0-.57.36Zm63.41-6.55c-.07.12.21.58.89,1.5a5.19,5.19,0,0,0,1,1.13c.18,0,.13-.78-.1-1.26-.34-.72-1.09-1.52-1.43-1.52a.54.54,0,0,0-.41.15Z"/><path class="cls-3" d="M70.33,64.63a1.78,1.78,0,0,1-.59.2.52.52,0,0,0-.34.12,7.82,7.82,0,0,1-1.28.35c-1.07.23-1.17.27-1.17.57s0,.32,1,.25a4.8,4.8,0,0,0,1.21-.2l.66-.31c.61-.27,1.26-.77,1.26-1s-.23-.24-.72,0Zm12.94-2.86a1,1,0,0,1-.54.21,8.86,8.86,0,0,0-2.54,1.3c-.31.29-.41,1-.14,1a1.74,1.74,0,0,0,.7-.48A6.12,6.12,0,0,1,81.82,63c1.59-.86,1.9-1,1.86-1.16S83.36,61.62,83.27,61.77Z"/><path class="cls-3" d="M55.74,76.56c0,.29,0,.55.12.59a1.15,1.15,0,0,1,.18.47,18.4,18.4,0,0,0,1.19,2.6A21,21,0,0,0,59.29,83a26.27,26.27,0,0,0,4.43,3.44,6.59,6.59,0,0,1,.77.44,9.2,9.2,0,0,0,3.93,1.54c1.23.17,1.73.08,1.68-.3s-.1-.3-1.63-.62a4.79,4.79,0,0,1-1-.28,1.34,1.34,0,0,0-.43-.12,6.43,6.43,0,0,1-1.22-.55l-1.32-.69c-.17-.08-.31-.18-.31-.25s-.06-.09-.14-.09a19.27,19.27,0,0,1-4.19-3.3,19.29,19.29,0,0,1-3.4-5.65c-.32-.75-.71-.78-.71,0Zm9.1-.63c0-.31.06-.54.14-.54a7,7,0,0,1,1,.89A18,18,0,0,0,69.71,79c.08,0,.15,0,.15.1s.14.2.33.3c.46.25.42.52-.08.52-.83,0-3.29-1.44-4.5-2.65C64.92,76.55,64.84,76.4,64.84,75.93Z"/><path class="cls-5" d="M7.69,87.3c1.73.8,4.1,3,4.1,3.92,0,.2-.1.27-.33.27s-.33-.08-.33-.21c0-.83-3.42-3.29-4.82-3.49-.41-.05-.53-.12-.53-.33,0-.43,1.1-.53,1.91-.16ZM7.79,71a4,4,0,0,1,.67.4.58.58,0,0,0,.28.17,6.52,6.52,0,0,1,.91.82A7.84,7.84,0,0,1,11.52,75a.42.42,0,0,0,.13.3c.23.15.15.81-.13,1.06s-.29.3-.53-.47A9.2,9.2,0,0,0,9.9,73.74a10.2,10.2,0,0,0-2-2c-.1,0-.18,0-.18-.11s-.14-.19-.33-.29-.46-.52-.19-.52A3.37,3.37,0,0,1,7.79,71Z"/><path class="cls-5" d="M116,84.76a.48.48,0,0,0,.35.13,3.89,3.89,0,0,1,1.56.55c0,.07.08.11.17.11a1.43,1.43,0,0,1,.56.39c.27.29.34.44.23.55s-.23.09-.47-.11a3.6,3.6,0,0,0-.9-.42c-.32-.09-.7-.23-.84-.28a9.56,9.56,0,0,0-3.63-.25c-.47.08-.43-.26.06-.55a3.1,3.1,0,0,1,1.61-.24,3.16,3.16,0,0,1,1.3.12Zm10.82-17.29a3.94,3.94,0,0,1-.75,1.18c-.47.6-.9,1.19-1,1.34a5.09,5.09,0,0,1-.34.47c-.2.24-2.22,3.45-2.64,4.2-.29.51-.5.57-.5.13,0-.63,2.07-4.42,3.16-5.79.24-.31.91-1.11,1.19-1.41s.73-.33.86-.12Zm.28,13.6c.48.14.58.2.58.47s-.1.38-.45.12-.77-.26-1.56-.08a13.57,13.57,0,0,0-3.29.93c-.85.44-1.18.37-.93-.18.42-.93,3.88-1.7,5.65-1.26Z"/></svg>