<svg id="Layer_1" data-name="Layer 1" xmlns="http://www.w3.org/2000/svg" viewBox="0 0 500 500"><defs><style>.cls-1{fill:#4f5f70;}.cls-2{fill:#ef9e47;}.cls-3{fill:#2a3e52;}.cls-4{fill:#f3b573;}.cls-5{fill:#f4b9af;}.cls-6{fill:#f1f2f2;}.cls-7{fill:#c39038;}.cls-8{fill:#ca8f91;}.cls-9{fill:#f29a94;}.cls-10{fill:#162c42;}.cls-11{fill:#e6e7e8;}.cls-12{fill:#bcbec0;}</style></defs><path class="cls-1" d="M291.36,356.19,223,354.43a17.09,17.09,0,0,1-16.58-18.61c6.61-73.46,40.6-113,65.92-142.47,16.44-19.12,25.1-29.76,27-43.8,2.3-16.84-3.61-24.78-8.26-29.29-10.84-10.5-30.6-15.14-50.32-11.81-14.68,2.47-25.37,9-30.09,18.24-3.21,6.31-3.74,14.07-1.65,22.58a16.89,16.89,0,0,1-9,19l-61.79,30.82a17,17,0,0,1-23.64-9.32c-13.53-37.33-11.95-76.38,4.89-109.49C139,41.92,177,15.4,223.8,7.51c52.32-8.81,104.13,5.87,138.57,39.27,31,30,44.61,71.45,38.42,116.65-6.1,44.62-30.89,73.46-50.8,96.63-20.35,23.68-36.91,42.94-41.24,81.16A17,17,0,0,1,291.36,356.19Z"/><rect class="cls-1" x="197.87" y="380.91" width="112.33" height="91.37" rx="22.78" transform="matrix(1, 0.01, -0.01, 1, 2.87, -1.7)"/><path class="cls-2" d="M82.6,314.48c2.3,17.23,2.1,72.37,1.61,83.35s-17.93,6.79-19.4-4.24S53.58,333.74,51.37,316.4C49.34,300.54,80.3,297.24,82.6,314.48Z"/><path class="cls-2" d="M84.21,397.83c-.87,24.36-1.8,84.19-1.8,84.19l-11.23,1.5c-6.25-42.44-12-68.15-6.37-89.93C70.14,372.87,84.79,381.6,84.21,397.83Z"/><path class="cls-3" d="M82.41,482c1.71,3.28,15.27,6,15.18,9.76,0,1.23-27.25,2.76-27.53.66s1.12-8.92,1.12-8.92Z"/><path class="cls-4" d="M61.42,314.48c0,17.38-7.21,72-9.14,82.85s-18.65,4.08-18.65-7-3.52-60.55-3.42-78C30.3,296.26,61.42,297.09,61.42,314.48Z"/><path class="cls-4" d="M52.28,397.33c-4.08,24-12.63,85.24-12.63,85.24H28.31c-.58-42.89-3.11-71.43,5.32-92.28C41.64,370.45,55,381.32,52.28,397.33Z"/><path class="cls-3" d="M39.65,482.57c1.25,3.48,12.78,8.43,12.19,12.11C51.65,495.9,26,493.39,26,491.26s2.28-8.69,2.28-8.69Z"/><path class="cls-4" d="M82.94,293.55c0,12.33.35,19.84.35,28.28,0,7.5-48.42,10.37-52.12-.62-3.33-9.91-.91-27.66-.91-27.66Z"/><path class="cls-3" d="M70,201.49,50.35,200c-8,1.8-18.44,4.38-21.86,9.09s1.77,55.81-.38,99.74c2.78,6.61,52.66,5.88,56.41,0-1.23-54.09,9.6-97.11,2.53-102.63C83.75,203.62,77.57,202.83,70,201.49Z"/><path class="cls-5" d="M68.13,181.75c-1.55,9.84-2.67,18.65,1.83,19.74l-2.56,8.76L50.35,200c1.29-.35,4.68-10.71,1.94-23.51Z"/><path class="cls-6" d="M70,200,67.4,210.25,50.35,199.33,47,202.16c3,5.68,6.25,9.53,10.52,14.23l9.93-5.16L74,214.86c.68-3.69-.34-9.22-.9-12.92Z"/><path class="cls-7" d="M37.65,154.77c-1.65,3.93-.57,8.46-.18,10.1,2.41,10.1,11.41,14.78,13,15.55,20.14-12.36,32.92-27.42,30.4-33.56C77.35,138.41,43.22,141.44,37.65,154.77Z"/><path class="cls-5" d="M79.19,147.16s5.42,17.36,6.76,26.16S78.3,190.14,69,189.49s-15-8.2-15-8.2-.89-2.83-2.38-8.45c4.09-10-.32-15.69.68-16.91C54.11,153.78,79.19,147.16,79.19,147.16Z"/><path class="cls-8" d="M72.51,181.39a.21.21,0,0,1-.15-.07.2.2,0,0,1,0-.27l2.21-1.75a.19.19,0,0,1,.27,0,.18.18,0,0,1,0,.26l-2.21,1.76A.15.15,0,0,1,72.51,181.39Z"/><ellipse class="cls-9" cx="61.91" cy="173.97" rx="2.22" ry="2.92" transform="translate(-115.43 225.41) rotate(-86.59)"/><ellipse class="cls-9" cx="81.93" cy="169.77" rx="1.87" ry="2.46" transform="translate(-92.42 241.45) rotate(-86.59)"/><path class="cls-8" d="M70.12,189.71a18.62,18.62,0,0,1-7.21-1.52.18.18,0,0,1-.1-.24.19.19,0,0,1,.25-.1,18,18,0,0,0,8,1.46.18.18,0,0,1,.2.17.19.19,0,0,1-.17.2C70.77,189.7,70.45,189.71,70.12,189.71Z"/><path class="cls-5" d="M54.05,181.29c-8.9,4.35-12.38-11.66-2.38-8.45Z"/><path class="cls-7" d="M52.35,155.93c19.05-7.32,22.5-4.64,30.24-8.56s4.8-17.56,1.87-19.34c-2,4.26-11.38,5.05-24.22,4.34-12.25-.68-24.11,6.36-22.59,22.39C38.05,159,52.35,155.93,52.35,155.93Z"/><path class="cls-8" d="M52.68,179.13a.2.2,0,0,1-.11,0L47,175.38a.18.18,0,0,1-.05-.26.19.19,0,0,1,.26-.05l5.62,3.72a.18.18,0,0,1,0,.26A.18.18,0,0,1,52.68,179.13Z"/><ellipse class="cls-3" cx="64.17" cy="167.26" rx="2.58" ry="3.2" transform="translate(-29.39 14.49) rotate(-10.5)"/><ellipse class="cls-3" cx="78.31" cy="164.65" rx="2.58" ry="3.2" transform="translate(-28.68 17.02) rotate(-10.5)"/><path class="cls-8" d="M76.46,175a.19.19,0,0,1-.15-.07.19.19,0,0,1,0-.26s1.79-1.37,1.21-2.48a6.07,6.07,0,0,0-1.8-1.6,10.82,10.82,0,0,1-2.47-2.17.18.18,0,0,1,0-.27.19.19,0,0,1,.26,0A10,10,0,0,0,76,170.3,6.22,6.22,0,0,1,77.89,172c.73,1.39-1.23,2.88-1.32,2.94A.15.15,0,0,1,76.46,175Z"/><path class="cls-8" d="M56.44,160.09h-.13a.5.5,0,0,1-.36-.61,4.2,4.2,0,0,1,3.14-3.17,3.65,3.65,0,0,1,3.65,1.15.5.5,0,0,1-.07.7.49.49,0,0,1-.7-.06,2.65,2.65,0,0,0-2.66-.82,3.19,3.19,0,0,0-2.39,2.45A.5.5,0,0,1,56.44,160.09Z"/><path class="cls-8" d="M78.29,155.31a.5.5,0,0,1-.4-.19,2.86,2.86,0,0,0-2.23-1.18,2.76,2.76,0,0,0-2.19,1.16.5.5,0,1,1-.81-.59,3.77,3.77,0,0,1,3-1.57,3.72,3.72,0,0,1,3,1.57.49.49,0,0,1-.39.8Z"/><path class="cls-3" d="M27.42,211c-7.39,18-13.7,43.17-14.2,51s12.37,10.91,15.64,2.27c4.66-12.32,8.52-20.28,12.06-31.22S32.09,199.64,27.42,211Z"/><path class="cls-10" d="M28.86,264.45l-.09,0a.24.24,0,0,1-.14-.32c1.82-4.8,3.49-8.9,5.11-12.85,2.46-6,4.79-11.69,6.94-18.36a.26.26,0,0,1,.32-.16.25.25,0,0,1,.16.31c-2.16,6.69-4.49,12.38-7,18.4-1.62,4-3.29,8-5.1,12.84A.28.28,0,0,1,28.86,264.45Z"/><path class="cls-5" d="M24.42,292.33l-1.75,21.46a12,12,0,0,1,4.3,5c2,4.41,3.74,9,3.51,10-1.45,5.52-1.16,8.07-1.43,8.66-.38.84-2,.4-3-.93s-.81-3.62-.45-5.65c.07-.39-.37-1.93-.76-2s-1.35.78-1.84,1.55a33.54,33.54,0,0,0-1.48,4.59s-.17,7.77-.55,9.34c-.56,2.3-2.51,3-3,2.5,0,0,0,.44-.06.72-.25,1.78-3.67,3.75-3.82,1.2-.05-.87-.11-2.15-.11-2.15-.35.18-1.52.73-1.85-.92-.13-.61-.46-2.28-.46-2.28-.3.3-.79.53-1-.16-.14-.36-1.94-6.63-2-7.55s-.49-7.49-.34-8c.31-1.12,4.42-13.51,4.42-13.51l2.17-20.95Z"/><path class="cls-8" d="M18,346.91a.19.19,0,0,1-.19-.17l-1-10.49.71-4.82a.17.17,0,0,1,.21-.15.19.19,0,0,1,.16.21l-.71,4.77,1,10.45a.19.19,0,0,1-.17.2Z"/><path class="cls-8" d="M14,346.69a.2.2,0,0,1-.19-.17l-1.2-9.16v-.05l.88-6.83a.19.19,0,0,1,.21-.17.2.2,0,0,1,.17.21L13,337.34l1.21,9.13a.19.19,0,0,1-.17.21Z"/><path class="cls-8" d="M11.66,343.48a.19.19,0,0,1-.19-.15l-1.35-7.67v0l.46-5.65a.19.19,0,0,1,.37,0l-.45,5.62,1.34,7.64a.19.19,0,0,1-.15.22Z"/><path class="cls-3" d="M28.86,264.2C27,256.88,14,250,12.92,264.08c-1,13.52-1.3,48.4-1.3,48.4l12,.87S30.57,270.91,28.86,264.2Z"/><path class="cls-10" d="M23.63,313.59h0a.24.24,0,0,1-.2-.29c.07-.42,6.91-42.45,5.23-49a.26.26,0,0,1,.18-.31.25.25,0,0,1,.3.18c1.71,6.69-4.94,47.52-5.22,49.25A.25.25,0,0,1,23.63,313.59Z"/><path class="cls-3" d="M87.3,206.28c2.46,1.92,26.21,31.69,30.15,37.46,4.53,6.62-2.89,15.32-11.61,10.66s-25.55-20.74-30-26.41S80.63,201.07,87.3,206.28Z"/><path class="cls-5" d="M92,218.74l7.11-3.52s-5.19-10.5-5.71-11.26c-2.83-4.08-8.06-16.81-8.69-17.12l-3.62,2-3.55,10.09c1.62,1,3,7.51,5.82,9.38a19.32,19.32,0,0,0,4.23,1.45Z"/><path class="cls-5" d="M75.11,194.56c-1,2.7-3.52,2.44-3.31,1.2.72-4.45.63-7.79.91-8.41,1.05-2.3,11-.9,12-.51.57,1.68-.29,3.62-2.62,3.41L75.89,190A23.41,23.41,0,0,1,75.11,194.56Z"/><path class="cls-5" d="M76,198.3c.9,3-1.51,4.46-2.15,3.23-2.27-4.42-4.18-6.76-4.39-7.48-.61-2.13,12.67-5.86,12.67-5.86,1.11,1.61.79,3.93-1.75,4.41l-5.91,2.48A12.21,12.21,0,0,1,76,198.3Z"/><path class="cls-8" d="M72.51,191.74a.18.18,0,0,1-.15-.1.17.17,0,0,1,.08-.22A83.6,83.6,0,0,1,82.09,188a.16.16,0,0,1,.2.12.15.15,0,0,1-.11.2,82.46,82.46,0,0,0-9.6,3.37Z"/><path class="cls-5" d="M78.11,202.06c1.51,2.69-.48,4.55-1.34,3.52-3.1-3.7-5.83-6.4-6.19-7-1.16-2.08,11.34-7,11.34-7,1,1.24.71,3.95-1.5,5.07L76,199.18C76.43,200.07,77.34,200.68,78.11,202.06Z"/><path class="cls-8" d="M71.35,197.16a.16.16,0,0,1-.11-.29c2.62-2.32,10.3-5.37,10.62-5.49a.16.16,0,0,1,.22.09.16.16,0,0,1-.1.21c-.08,0-7.94,3.16-10.53,5.44A.21.21,0,0,1,71.35,197.16Z"/><path class="cls-5" d="M79.53,204.24c1.58,2.14.08,3.95-.77,3.16-3.06-2.83-5-4.12-5.36-4.65-.74-1.09,6.93-7.55,6.93-7.55,1.29.54,2,2.19.34,4l-3.08,3A11.45,11.45,0,0,1,79.53,204.24Z"/><path class="cls-8" d="M73.58,202.1l-.08,0a.17.17,0,0,1-.06-.23c1.21-2.07,6.56-6.58,6.78-6.77a.16.16,0,1,1,.21.25c-.05,0-5.52,4.67-6.71,6.69A.16.16,0,0,1,73.58,202.1Z"/><path class="cls-3" d="M118.84,248.05c1.23,7.19-14.19,11-19.71-1.43-4.79-10.84-13-34.32-13-34.32l11.6-6.43S117.7,241.45,118.84,248.05Z"/><path class="cls-10" d="M99.13,246.87a.26.26,0,0,1-.23-.15c-4.74-10.72-13-34.1-13.05-34.33a.24.24,0,0,1,.15-.32.26.26,0,0,1,.32.15c.08.23,8.31,23.6,13,34.3a.25.25,0,0,1-.13.33Z"/><ellipse class="cls-11" cx="394.95" cy="333.09" rx="96.8" ry="75.05"/><path class="cls-11" d="M321.5,295.8q-.35-29.31-19.13-43.92C321,251,341.54,262,346.05,278.72Z"/><path class="cls-12" d="M439.68,309.21H350.23a2.17,2.17,0,1,1,0-4.34h89.45a2.17,2.17,0,1,1,0,4.34Z"/><path class="cls-12" d="M439.68,335.06H350.23a2.17,2.17,0,1,1,0-4.34h89.45a2.17,2.17,0,1,1,0,4.34Z"/><path class="cls-12" d="M405.24,360.91h-55a2.17,2.17,0,1,1,0-4.34h55a2.17,2.17,0,0,1,0,4.34Z"/><ellipse class="cls-11" cx="78.31" cy="56.82" rx="56.94" ry="44.15"/><path class="cls-11" d="M121.52,78.76q.21,17.25,11.26,25.84c-11,.54-23-5.94-25.7-15.79Z"/><path class="cls-12" d="M104.62,42.9H52a1.28,1.28,0,0,1,0-2.56h52.62a1.28,1.28,0,1,1,0,2.56Z"/><path class="cls-12" d="M104.62,58.1H52a1.28,1.28,0,1,1,0-2.55h52.62a1.28,1.28,0,1,1,0,2.55Z"/><path class="cls-12" d="M104.62,73.31H72.26a1.28,1.28,0,0,1,0-2.56h32.36a1.28,1.28,0,0,1,0,2.56Z"/><ellipse class="cls-11" cx="157.78" cy="378.92" rx="47.81" ry="37.1"/><path class="cls-11" d="M193.05,403.83c1.08,7.49,5.62,14,12.54,19.84-13.27-.37-24.14-5.39-32.45-15.41Z"/><circle class="cls-12" cx="157.78" cy="378.92" r="5.41"/><circle class="cls-12" cx="134.2" cy="378.92" r="5.41"/><circle class="cls-12" cx="181.36" cy="378.92" r="5.41"/></svg>